{
    "asset" : {
        "generator" : "Khronos glTF Blender I/O v3.3.32",
        "version" : "2.0"
    },
    "scene" : 0,
    "scenes" : [
        {
            "name" : "Scene",
            "nodes" : [
                0
            ]
        }
    ],
    "nodes" : [
        {
            "mesh" : 0,
            "name" : "Laptop",
            "rotation" : [
                0.7068294882774353,
                0.00019180607341695577,
                -0.0017265410861000419,
                0.7073818445205688
            ],
            "scale" : [
                0.18931980431079865,
                0.189319908618927,
                0.18931980431079865
            ],
            "translation" : [
                0.024468302726745605,
                0.07835128903388977,
                0.019968926906585693
            ]
        }
    ],
    "materials" : [
        {
            "doubleSided" : true,
            "name" : "mat0",
            "pbrMetallicRoughness" : {
                "baseColorFactor" : [
                    0.02624119259417057,
                    0.026241198182106018,
                    0.02624122053384781,
                    1
                ],
                "metallicFactor" : 0,
                "roughnessFactor" : 0.4000000059604645
            }
        }
    ],
    "meshes" : [
        {
            "name" : "imagetostl_mesh",
            "primitives" : [
                {
                    "attributes" : {
                        "POSITION" : 0,
                        "NORMAL" : 1
                    },
                    "indices" : 2,
                    "material" : 0
                }
            ]
        }
    ],
    "accessors" : [
        {
            "bufferView" : 0,
            "componentType" : 5126,
            "count" : 23407,
            "max" : [
                15.200003623962402,
                9.603267669677734,
                3.890754305757582e-05
            ],
            "min" : [
                -15.200000762939453,
                -10.896980285644531,
                -20.55837631225586
            ],
            "type" : "VEC3"
        },
        {
            "bufferView" : 1,
            "componentType" : 5126,
            "count" : 23407,
            "type" : "VEC3"
        },
        {
            "bufferView" : 2,
            "componentType" : 5123,
            "count" : 24966,
            "type" : "SCALAR"
        }
    ],
    "bufferViews" : [
        {
            "buffer" : 0,
            "byteLength" : 280884,
            "byteOffset" : 0,
            "target" : 34962
        },
        {
            "buffer" : 0,
            "byteLength" : 280884,
            "byteOffset" : 280884,
            "target" : 34962
        },
        {
            "buffer" : 0,
            "byteLength" : 49932,
            "byteOffset" : 561768,
            "target" : 34963
        }
    ],
    "buffers" : [
        {
            "byteLength" : 611700,
            "uri" : "data:application/octet-stream;base64,"
        }
    ]
}
