<svg width="214" height="101" viewBox="0 0 214 101" fill="none" xmlns="http://www.w3.org/2000/svg">
<path d="M127.254 64.717L100.782 18.8826L119.801 8L152.716 64.717H127.254Z" fill="#282828"/>
<path d="M56.751 58.295L75.7632 47.3394L85.8305 64.7171H60.4413L56.751 58.295Z" fill="#282828"/>
<path d="M94.0693 93.9578H99.4826V72.1436H94.0693V93.9578Z" fill="#282828"/>
<path d="M161.886 94.473C155.839 94.473 152.195 91.3599 151.997 86.9729H157.707C157.707 88.3453 158.566 90.3553 162.256 90.4285C164.718 90.4285 165.873 88.9823 165.873 87.9043C165.728 86.1881 163.563 86.0415 161.252 85.6738C158.935 85.3062 156.968 84.889 155.542 84.1536C153.72 83.2222 152.492 81.2129 152.492 78.9085C152.492 75.0113 155.885 71.9233 161.543 71.9233C167.029 71.9233 170.501 74.7908 170.871 79.0557H165.358C165.306 77.9038 165.088 76.0899 161.84 76.0899C159.648 76.0899 158.196 76.5315 158.077 78.051C158.077 80.2815 162.625 80.1343 166.17 81.0657C169.564 81.9238 171.729 84.0315 171.729 86.9729C171.729 92.3897 167.326 94.473 161.886 94.473Z" fill="#282828"/>
<path d="M79.0371 38.834L98.056 27.9023L119.379 64.7171H99.4819V70.1094H94.0687V64.6927L79.0371 38.834Z" fill="#282828"/>
<path fill-rule="evenodd" clip-rule="evenodd" d="M79.532 94.4727C73.2342 94.4727 68.1182 89.3497 68.1182 83.1487C68.1182 76.8738 73.2342 71.9231 79.532 71.9231C81.9152 71.9231 84.0805 72.5601 85.9751 73.8592V64.7168H91.3883V93.9578H85.9751V92.5116C84.0805 93.7374 81.9152 94.4727 79.532 94.4727ZM73.3069 83.1487C73.3069 86.5311 76.2116 89.3497 79.6773 89.3497C83.0705 89.3497 85.9751 86.5311 85.9751 83.1487C85.9751 79.7664 83.0705 76.8738 79.6773 76.8738C76.2116 76.8738 73.3069 79.7664 73.3069 83.1487Z" fill="#282828"/>
<path fill-rule="evenodd" clip-rule="evenodd" d="M119.531 64.7168H124.865V93.9578H119.531V92.5116C117.709 93.7374 115.471 94.4727 113.008 94.4727C106.783 94.4727 101.667 89.3497 101.667 83.1487C101.667 76.8738 106.783 71.9231 113.008 71.9231C115.471 71.9231 117.636 72.5601 119.531 73.8592V64.7168ZM106.935 83.1487C106.935 86.5311 109.833 89.3497 113.16 89.3497C116.626 89.3497 119.531 86.5311 119.531 83.1487C119.531 79.7664 116.626 76.8738 113.16 76.8738C109.833 76.8738 106.935 79.7664 106.935 83.1487Z" fill="#282828"/>
<path fill-rule="evenodd" clip-rule="evenodd" d="M138.028 94.473C131.829 94.473 126.687 89.3499 126.687 83.149C126.687 76.8741 131.829 71.9233 138.028 71.9233C140.411 71.9233 142.649 72.5603 144.471 73.8594V72.1194H149.884V93.9581H144.471V92.5118C142.649 93.7376 140.49 94.473 138.028 94.473ZM131.948 83.149C131.948 86.5313 134.853 89.3499 138.246 89.3499C141.645 89.3499 144.471 86.5313 144.471 83.149C144.471 79.7666 141.645 76.8741 138.246 76.8741C134.853 76.8741 131.948 79.7666 131.948 83.149Z" fill="#282828"/>
<path fill-rule="evenodd" clip-rule="evenodd" d="M48.2152 83.149C48.2152 86.5313 51.1198 89.3499 54.5129 89.3499C57.9787 89.3499 60.8834 86.5313 60.8834 83.149C60.8834 79.7666 57.9787 76.8741 54.5129 76.8741C51.1198 76.8741 48.2152 79.7666 48.2152 83.149ZM54.3677 94.473C48.1425 94.473 43 89.3499 43 83.149C43 76.8741 48.1425 71.9233 54.3677 71.9233C56.7508 71.9233 58.9887 72.5603 60.8834 73.8594V72.1194H66.224V93.9581H60.8834V92.5118C59.0613 93.7376 56.8235 94.473 54.3677 94.473Z" fill="#282828"/>
</svg>
