<svg width="129" height="88" viewBox="0 0 129 88" fill="none" xmlns="http://www.w3.org/2000/svg">
<path d="M84.4055 57.3034L57.9336 11.4691L76.9524 0.586426L109.867 57.3034H84.4055Z" fill="#282828"/>
<path d="M13.9023 50.8814L32.9146 39.9258L42.9818 57.3035H17.5926L13.9023 50.8814Z" fill="#282828"/>
<path d="M51.2207 86.5443H56.634V64.73H51.2207V86.5443Z" fill="#282828"/>
<path d="M119.037 87.0594C112.99 87.0594 109.346 83.9464 109.148 79.5593H114.859C114.859 80.9317 115.717 82.9417 119.407 83.015C121.869 83.015 123.025 81.5687 123.025 80.4907C122.88 78.7745 120.714 78.6279 118.404 78.2603C116.087 77.8926 114.119 77.4754 112.693 76.7401C110.871 75.8087 109.644 73.7993 109.644 71.4949C109.644 67.5977 113.037 64.5098 118.694 64.5098C124.18 64.5098 127.652 67.3772 128.022 71.6421H122.51C122.457 70.4903 122.239 68.6763 118.991 68.6763C116.8 68.6763 115.347 69.1179 115.228 70.6375C115.228 72.8679 119.777 72.7207 123.322 73.6521C126.715 74.5103 128.88 76.6179 128.88 79.5593C128.88 84.9761 124.477 87.0594 119.037 87.0594Z" fill="#282828"/>
<path d="M36.1885 31.4204L55.2073 20.4888L76.53 57.3035H56.6333V62.6959H51.22V57.2791L36.1885 31.4204Z" fill="#282828"/>
<path fill-rule="evenodd" clip-rule="evenodd" d="M36.6834 87.0591C30.3856 87.0591 25.2695 81.9361 25.2695 75.7352C25.2695 69.4603 30.3856 64.5095 36.6834 64.5095C39.0665 64.5095 41.2318 65.1465 43.1265 66.4456V57.3032H48.5397V86.5443H43.1265V85.098C41.2318 86.3238 39.0665 87.0591 36.6834 87.0591ZM30.4583 75.7352C30.4583 79.1175 33.3629 81.9361 36.8287 81.9361C40.2219 81.9361 43.1265 79.1175 43.1265 75.7352C43.1265 72.3528 40.2219 69.4603 36.8287 69.4603C33.3629 69.4603 30.4583 72.3528 30.4583 75.7352Z" fill="#282828"/>
<path fill-rule="evenodd" clip-rule="evenodd" d="M76.682 57.3032H82.0159V86.5443H76.682V85.098C74.86 86.3238 72.6221 87.0591 70.1597 87.0591C63.9345 87.0591 58.8184 81.9361 58.8184 75.7352C58.8184 69.4603 63.9345 64.5095 70.1597 64.5095C72.6221 64.5095 74.7873 65.1465 76.682 66.4456V57.3032ZM64.0863 75.7352C64.0863 79.1175 66.9844 81.9361 70.3115 81.9361C73.7773 81.9361 76.682 79.1175 76.682 75.7352C76.682 72.3528 73.7773 69.4603 70.3115 69.4603C66.9844 69.4603 64.0863 72.3528 64.0863 75.7352Z" fill="#282828"/>
<path fill-rule="evenodd" clip-rule="evenodd" d="M95.1792 87.0594C88.9804 87.0594 83.8379 81.9364 83.8379 75.7354C83.8379 69.4605 88.9804 64.5098 95.1792 64.5098C97.5623 64.5098 99.8002 65.1468 101.622 66.4458V64.7058H107.035V86.5445H101.622V85.0982C99.8002 86.324 97.6415 87.0594 95.1792 87.0594ZM89.0992 75.7354C89.0992 79.1177 92.0039 81.9364 95.3971 81.9364C98.7968 81.9364 101.622 79.1177 101.622 75.7354C101.622 72.3531 98.7968 69.4605 95.3971 69.4605C92.0039 69.4605 89.0992 72.3531 89.0992 75.7354Z" fill="#282828"/>
<path fill-rule="evenodd" clip-rule="evenodd" d="M5.36654 75.7354C5.36654 79.1177 8.27113 81.9364 11.6643 81.9364C15.1301 81.9364 18.0347 79.1177 18.0347 75.7354C18.0347 72.3531 15.1301 69.4605 11.6643 69.4605C8.27113 69.4605 5.36654 72.3531 5.36654 75.7354ZM11.5191 87.0594C5.29389 87.0594 0.151367 81.9364 0.151367 75.7354C0.151367 69.4605 5.29389 64.5098 11.5191 64.5098C13.9022 64.5098 16.1401 65.1468 18.0347 66.4458V64.7058H23.3754V86.5445H18.0347V85.0982C16.2127 86.324 13.9748 87.0594 11.5191 87.0594Z" fill="#282828"/>
</svg>
