<svg width="232" height="58" viewBox="0 0 232 58" fill="none" xmlns="http://www.w3.org/2000/svg">
<path d="M94.0313 39.9353C94.0313 39.4507 93.7137 39.093 93.0635 38.953V38.6401C93.4233 38.6401 94.6214 38.6877 94.9588 38.6877C95.2506 38.6877 96.4111 38.6401 96.7722 38.6401V38.953C96.1688 39.0699 95.8519 39.4237 95.8519 39.9353V46.0794C95.8519 48.0254 96.9293 49.1251 99.1817 49.1251C101.123 49.1251 102.634 48.2604 102.634 46.2247V39.9108C102.634 39.4547 102.344 39.093 101.618 38.953V38.6401C101.882 38.6401 102.873 38.6877 103.211 38.6877C103.5 38.6877 104.54 38.6401 104.806 38.6401V38.953C104.104 39.1194 103.793 39.4309 103.793 39.9108V45.886C103.793 48.5674 102.22 50.1074 98.8272 50.1074C95.6684 50.1074 94.0313 48.6829 94.0313 46.1639V39.9353Z" fill="#282828"/>
<path d="M107.582 49.6258C108.317 49.4899 108.607 49.1209 108.607 48.668V40.1752C108.607 39.4544 108.22 39.1309 107.562 38.952V38.6392C107.935 38.6669 108.56 38.6827 108.879 38.6827C109.17 38.6827 109.621 38.6781 109.924 38.6392L117.35 47.3003V39.9112C117.35 39.4557 117.058 39.094 116.334 38.952V38.6392C116.6 38.6392 117.555 38.688 117.894 38.688C118.19 38.688 119.214 38.6392 119.483 38.6392V38.952C118.775 39.1177 118.433 39.4319 118.433 39.9112V50.1071H117.986C117.704 50.043 117.172 49.7427 116.361 48.8601L109.718 41.1832V48.668C109.718 49.1228 109.983 49.4839 110.708 49.6258V49.94C110.442 49.94 109.487 49.8899 109.147 49.8899C108.854 49.8899 107.851 49.94 107.582 49.94V49.6258Z" fill="#282828"/>
<path d="M166.171 47.3351H166.485C166.651 47.9701 167.017 48.5483 167.531 48.883C168.064 49.256 168.902 49.4342 169.578 49.4342C171.072 49.4342 172.018 48.7002 172.018 47.539C172.018 46.3357 170.806 45.7112 169.353 44.9911C168.271 44.4537 166.148 43.5679 166.148 41.5315C166.148 39.6344 167.607 38.4541 169.94 38.4541C171.479 38.4541 172.201 38.8271 173.24 38.7795L173.22 41.0813H172.903C172.487 39.7248 171.246 39.2522 169.886 39.2522C168.366 39.2522 167.797 40.1149 167.797 40.9922C167.797 42.2477 169.036 42.8814 170.439 43.5025C172.018 44.2003 173.732 45.0815 173.732 47.044C173.732 48.9015 172.267 50.2468 169.59 50.2468C167.997 50.2468 167.042 49.7952 166.204 49.6936L166.171 47.3351Z" fill="#282828"/>
<path d="M198.08 45.2651L195.056 40.4529C194.541 39.608 194.146 39.1631 193.57 38.9519V38.6396C193.985 38.6396 195.104 38.6892 195.421 38.6892C195.709 38.6892 196.917 38.6396 197.352 38.6396V38.9519C196.966 39.0199 196.785 39.212 196.785 39.5011C196.785 39.7565 196.96 40.0846 197.136 40.3698C197.308 40.6523 199.365 44.0366 199.365 44.0366L201.512 40.3711C201.729 40.0041 201.882 39.6397 201.882 39.3994C201.882 39.1803 201.726 38.9994 201.36 38.9519V38.6396C201.724 38.6396 202.488 38.6892 202.731 38.6892C202.975 38.6892 203.853 38.6396 204.214 38.6396V38.9308C203.387 39.2661 202.872 39.9849 202.371 40.8186L199.623 45.3753M199.811 44.801V48.6448C199.811 49.0263 200.103 49.5049 200.765 49.6257V49.9399C200.396 49.9399 199.192 49.8897 198.844 49.8897C198.551 49.8897 197.397 49.9399 196.98 49.9399V49.6257C197.644 49.5049 197.962 49.0263 197.962 48.6448V44.9693" fill="#282828"/>
<path d="M141.904 38.6403H148.994C149.213 38.6403 149.597 38.6152 149.816 38.5215H150.133L150.084 40.8061H149.769C149.499 40.0872 149.219 39.5116 147.847 39.5116H144.769V43.494H147.141C147.487 43.494 147.906 43.465 148.088 43.4227C148.621 43.3065 148.856 43.0121 148.963 42.5613H149.28C149.257 42.9059 149.257 43.6914 149.257 43.9244C149.257 44.1581 149.28 44.9852 149.28 45.3595H148.963C148.811 44.9093 148.604 44.5673 148.088 44.4419C147.906 44.3944 147.48 44.3554 147.141 44.3554H144.769V49.027H148.117C149.579 49.027 150.004 48.4216 150.367 47.5675L150.68 47.6401L150.367 49.9867C149.28 49.8917 148.628 49.8917 147.393 49.8917H143.856C143.515 49.8917 142.264 49.9405 141.9 49.9405V49.6276C142.539 49.5069 142.912 49.1933 142.912 48.5867V39.9466C142.912 39.4113 142.621 39.0766 141.904 38.9572V38.6403Z" fill="#282828"/>
<path d="M123.797 40.0074C123.797 39.4284 123.449 39.109 122.766 38.9631V38.6528C123.146 38.6528 124.377 38.7004 124.735 38.7004C125.036 38.7004 126.3 38.6528 126.685 38.6528V38.9631C126.006 39.109 125.649 39.3974 125.649 40.0074V48.5873C125.649 49.1669 125.999 49.4824 126.685 49.6257V49.9399C126.301 49.9399 125.088 49.891 124.735 49.891C124.43 49.891 123.146 49.9399 122.765 49.9399V49.6257C123.463 49.4963 123.797 49.1933 123.797 48.5873V40.0074Z" fill="#282828"/>
<path d="M177.576 40.0074C177.576 39.4284 177.223 39.109 176.542 38.9631V38.6528C176.922 38.6528 178.153 38.7004 178.51 38.7004C178.813 38.7004 180.077 38.6528 180.461 38.6528V38.9631C179.782 39.109 179.427 39.3974 179.427 40.0074V48.5873C179.427 49.1669 179.777 49.4824 180.461 49.6257V49.9399C180.08 49.9399 178.868 49.891 178.51 49.891C178.209 49.891 176.922 49.9399 176.542 49.9399V49.6257C177.239 49.4963 177.576 49.1933 177.576 48.5873V40.0074Z" fill="#282828"/>
<path d="M187.43 38.6887C183.544 38.6887 182.922 38.6167 182.127 38.5679L182.134 40.896H182.45C182.74 39.8636 183.319 39.624 184.07 39.624H186.507V48.5882C186.507 49.1935 186.173 49.4971 185.473 49.6265V49.9407C185.857 49.9407 187.152 49.8919 187.451 49.8919C187.808 49.8919 189.024 49.9407 189.402 49.9407V49.6265C188.716 49.4833 188.367 49.1677 188.367 48.5882V39.624H190.786C191.564 39.624 192.12 39.8867 192.41 40.896H192.724L192.729 38.5679C191.939 38.6167 191.317 38.6887 187.43 38.6887Z" fill="#282828"/>
<path d="M156.419 48.5874C156.419 49.167 156.791 49.4812 157.476 49.6251V49.94C157.096 49.94 155.853 49.8905 155.498 49.8905C155.194 49.8905 153.981 49.94 153.598 49.94V49.6251C154.233 49.505 154.608 49.1934 154.608 48.5874V39.9197C154.608 39.387 154.316 39.051 153.6 38.9308V38.6186C153.981 38.6186 155.183 38.6661 155.522 38.6661C156.079 38.6661 157.66 38.5737 158.282 38.5737C161.006 38.5737 162.523 39.6913 162.523 41.6069C162.523 43.1126 161.394 44.1311 159.655 44.547C159.655 44.547 160.052 44.7753 160.447 45.2321C160.928 45.7939 162.225 47.6408 162.763 48.2864C163.301 48.9346 163.989 49.6568 164.726 49.6898V49.9426C164.373 50.0192 163.806 50.0858 163.373 50.0858C162.448 50.0858 161.71 49.7617 160.993 48.9003C160.371 48.1511 159.319 46.5959 158.699 45.8104C158.303 45.31 157.822 44.9193 156.943 44.7754C156.773 44.747 156.612 44.7232 156.419 44.7008V48.5874ZM156.419 43.9813C156.782 44.0301 157.315 44.0532 157.842 44.0532C159.975 44.0532 160.647 42.836 160.647 41.7587C160.647 40.2352 159.621 39.2913 157.755 39.2913C157.368 39.2913 156.808 39.3388 156.419 39.4114V43.9813Z" fill="#282828"/>
<path d="M129.417 40.0445C129.169 39.4986 128.787 39.0992 128.138 38.9573V38.6392C128.542 38.6392 129.942 38.6893 130.25 38.6893C130.533 38.6893 131.756 38.6392 132.172 38.6392V38.9481C131.803 39.0187 131.382 39.2207 131.382 39.5956C131.382 39.863 131.546 40.228 131.859 40.9145L134.793 47.5386L137.571 40.9033C137.79 40.3673 137.949 39.9528 137.949 39.6359C137.949 39.2854 137.623 39.0425 137.161 38.9481V38.6392C137.53 38.6392 138.435 38.6893 138.717 38.6893C138.973 38.6893 140.036 38.6392 140.441 38.6392V38.9573C139.748 39.1435 139.325 39.5217 138.936 40.4181L134.849 49.9803H133.924L129.417 40.0445Z" fill="#282828"/>
<path d="M139.897 9.88739C139.424 8.85269 138.7 8.09846 137.472 7.82828V7.22607C138.236 7.22607 140.772 7.31664 141.355 7.31664C141.893 7.31664 144.35 7.22607 145.133 7.22607V7.81316C144.438 7.94782 143.64 8.33253 143.64 9.0426C143.64 9.54401 143.954 10.2371 144.537 11.5355L150.103 24.0899L155.37 11.5137C155.781 10.4959 156.088 9.71768 156.088 9.11547C156.088 8.44666 155.464 7.99311 154.591 7.81316V7.22607C155.288 7.22607 156.982 7.31664 157.52 7.31664C158.009 7.31664 160.022 7.22607 160.787 7.22607V7.79435C159.474 8.1477 158.671 8.89573 157.94 10.5936L150.197 28.7199H148.445L139.897 9.88739Z" fill="#282828"/>
<path d="M64.9463 28.0299C65.9576 27.8009 66.6686 27.3447 66.6686 26.208V9.59091C66.6686 8.49983 66.0065 8.04714 64.9463 7.77326V7.18359C65.477 7.18359 67.7644 7.27297 68.3203 7.27297C68.9613 7.27297 71.3589 7.18359 71.8857 7.18359V7.77326C70.8764 8.00073 70.1271 8.45574 70.1271 9.59091V16.5323H82.6052V9.59091C82.6052 8.45574 81.9404 8.00073 80.8862 7.77326V7.18359C81.413 7.18359 83.7677 7.27297 84.4074 7.27297C84.9593 7.27297 87.3002 7.18359 87.8217 7.18359V7.77326C86.811 8.00073 86.0617 8.45574 86.0617 9.59091V26.208C86.0617 27.2992 86.7648 27.7573 87.8217 28.0299V28.5738C87.3002 28.5738 84.9593 28.5289 84.4074 28.5289C83.7677 28.5289 81.413 28.5738 80.8862 28.5738V28.0299C81.8896 27.8009 82.6052 27.3447 82.6052 26.208V18.3548H70.1271V26.208C70.1271 27.3447 70.8295 27.7573 71.8857 28.0299V28.5738C71.3589 28.5738 68.9613 28.5289 68.3203 28.5289C67.7644 28.5289 65.477 28.5738 64.9463 28.5738V28.0299Z" fill="#282828"/>
<path d="M209.278 28.0299C210.573 27.8009 211.286 27.2906 211.286 26.1176V9.59088C211.286 8.45194 210.583 8.00071 209.332 7.77317V7.1835C210.052 7.1835 212.399 7.27294 213.049 7.27294C214.098 7.27294 217.025 7.04541 219.303 7.04541C226.979 7.04541 231.639 11.2978 231.639 17.7647C231.639 24.0495 226.79 28.7072 218.876 28.7072C216.594 28.7072 213.888 28.529 212.829 28.529C212.185 28.529 209.997 28.6187 209.278 28.6187V28.0299ZM214.743 26.9348C215.525 27.0754 216.969 27.1632 218.108 27.1632C224.556 27.1632 227.913 23.3135 227.913 17.943C227.913 12.3757 224.371 8.45822 218.343 8.45822C217.111 8.45822 215.572 8.54991 214.743 8.68344V26.9348Z" fill="#282828"/>
<path d="M122.393 26.0566C122.393 27.1577 123.096 27.7564 124.39 28.029V28.6184C123.669 28.6184 121.321 28.528 120.646 28.528C120.076 28.528 117.772 28.6184 117.053 28.6184V28.029C118.254 27.8006 118.962 27.2072 118.962 26.0566V9.64821C118.962 8.63859 118.412 8.00021 117.055 7.77241V7.18274C117.776 7.18274 120.052 7.27218 120.69 7.27218C121.746 7.27218 124.739 7.09766 125.919 7.09766C131.082 7.09766 133.955 9.21572 133.955 12.8388C133.955 15.6944 131.811 17.6166 128.521 18.41C128.521 18.41 129.267 18.8411 130.018 19.7098C130.93 20.7719 133.444 24.3423 134.46 25.5648C135.475 26.7893 136.779 28.157 138.173 28.2198V28.7016C137.505 28.8449 136.436 28.967 135.619 28.967C133.859 28.967 132.461 28.3557 131.102 26.7213C129.93 25.3034 127.88 22.2894 126.705 20.8009C125.955 19.853 125.05 19.1137 123.389 18.8411C123.062 18.7856 122.754 18.7427 122.393 18.7025V26.0566ZM122.393 17.3413C123.076 17.4304 124.086 17.476 125.087 17.476C129.124 17.476 130.392 15.1703 130.392 13.1339C130.392 10.2413 128.451 8.45746 124.914 8.45746C124.186 8.45746 123.124 8.54948 122.393 8.68268V17.3413Z" fill="#282828"/>
<path d="M190.43 26.0566C190.43 27.1577 191.136 27.7564 192.431 28.029V28.6184C191.711 28.6184 189.366 28.528 188.69 28.528C188.11 28.528 185.814 28.6184 185.092 28.6184V28.029C186.291 27.8006 187 27.2072 187 26.0566V9.64821C187 8.63859 186.445 8.00021 185.096 7.77241V7.18274C185.819 7.18274 188.088 7.27218 188.731 7.27218C189.789 7.27218 192.781 7.09766 193.954 7.09766C199.125 7.09766 201.99 9.21572 201.99 12.8388C201.99 15.6944 199.851 17.6166 196.558 18.41C196.558 18.41 197.308 18.8411 198.053 19.7098C198.973 20.7719 201.487 24.3423 202.499 25.5648C203.519 26.7893 204.823 28.157 206.209 28.2198V28.7016C205.55 28.8449 204.474 28.967 203.666 28.967C201.902 28.967 200.498 28.3557 199.142 26.7213C197.97 25.3034 195.927 22.2894 194.742 20.8009C193.992 19.853 193.09 19.1137 191.432 18.8411C191.1 18.7856 190.796 18.7427 190.43 18.7025V26.0566ZM190.43 17.3413C191.122 17.4304 192.126 17.476 193.128 17.476C197.166 17.476 198.431 15.1703 198.431 13.1339C198.431 10.2413 196.488 8.45746 192.958 8.45746C192.223 8.45746 191.166 8.54948 190.43 8.68268V17.3413Z" fill="#282828"/>
<path d="M91.1048 28.0259C92.4707 27.7091 93.2206 26.8312 93.7184 25.6575L100.629 9.16084C100.923 8.47837 101.265 7.0752 101.265 7.0752H103.199C103.199 7.0752 103.545 8.48207 103.832 9.16599L111.136 25.7024C111.657 26.8417 112.22 27.6635 113.673 28.0259L113.669 28.5751C112.878 28.5751 110.42 28.5296 109.861 28.5296C109.305 28.5296 106.957 28.5751 106.167 28.5751L106.17 28.0259C107.234 27.7665 107.569 27.2299 107.569 26.711C107.569 26.2694 107.385 25.7717 107.162 25.2555L105.592 21.7022H97.5452L96.1074 25.2753C95.9464 25.6799 95.7549 26.2522 95.7549 26.6377C95.7549 27.2338 96.0691 27.7091 97.2752 28.0259L97.2726 28.5751C96.5583 28.5751 94.6716 28.5296 94.2293 28.5296L91.1035 28.5751L91.1048 28.0259ZM104.864 20.0183L101.428 12.0746L98.2272 20.0183H104.864Z" fill="#282828"/>
<path d="M159.567 28.0259C160.932 27.7091 161.685 26.8312 162.18 25.6575L169.093 9.16084C169.387 8.47837 169.733 7.0752 169.733 7.0752H171.666C171.666 7.0752 172.009 8.48207 172.295 9.16599L179.601 25.7024C180.117 26.8417 180.687 27.6635 182.133 28.0259L182.13 28.5751C181.342 28.5751 178.881 28.5296 178.319 28.5296C177.767 28.5296 175.421 28.5751 174.63 28.5751V28.0259C175.7 27.7665 176.03 27.2299 176.03 26.711C176.03 26.2694 175.849 25.7717 175.63 25.2555L174.054 21.7022H166.006L164.567 25.2753C164.406 25.6799 164.216 26.2522 164.216 26.6377C164.216 27.2338 164.53 27.7091 165.737 28.0259V28.5751C165.019 28.5751 163.136 28.5296 162.691 28.5296L159.564 28.5751L159.567 28.0259ZM173.327 20.0183L169.888 12.0746L166.689 20.0183H173.327Z" fill="#282828"/>
<path d="M1.14453 0.513184H49.3286V18.5712C49.3286 26.8448 46.2239 44.3909 25.4161 57.4497C25.4161 57.4497 2.87015 48.1079 1.14453 18.5712V0.513184Z" fill="#282828"/>
<path d="M1.04492 0.465332H49.2759V18.5357C49.2759 26.8127 46.1679 44.368 25.341 57.436C25.341 57.436 2.77319 48.0883 1.04492 18.5357V0.465332Z" stroke="#282828" stroke-width="0.306667"/>
<path d="M37.6152 23.7177C37.6152 23.7177 37.1854 25.0762 35.275 23.6801L28.7151 23.523C28.7151 23.523 27.8563 23.7969 27.7394 22.9051C27.7394 22.9051 27.8965 21.1242 27.8166 20.9684C27.8166 20.9684 27.8562 20.4654 26.9941 20.4654C26.9941 20.4654 25.6692 20.6198 25.6295 19.4561C25.6295 19.4561 25.3979 18.2171 27.2311 18.258C27.2311 18.258 27.8166 18.528 27.8563 17.7907C27.8563 17.7907 27.779 12.7535 27.8166 12.3686C27.8166 12.3686 27.9738 11.9059 27.074 11.8267C27.074 11.8267 25.7867 12.0973 25.6295 11.2478C25.6295 11.2478 25.5523 9.96916 26.4125 9.89002C26.4125 9.89002 27.4661 9.96916 27.6608 9.69641C27.6608 9.69641 27.8965 9.84955 27.8563 8.92449L27.8965 7.33286C27.8965 7.33286 28.0094 6.90809 28.6748 6.94967C28.6748 6.94967 29.8855 7.02624 30.044 6.90809C30.044 6.90809 30.314 6.56127 30.3939 6.40384C30.3939 6.40384 31.0197 6.36621 31.1352 6.52199C31.1352 6.52199 32.0726 7.14183 35.6255 6.90809C35.6255 6.90809 36.1728 6.90809 36.287 7.06414C36.287 7.06414 36.9531 7.56667 37.3426 7.02624C37.3426 7.02624 37.9281 6.90809 39.6841 6.94967C39.6841 6.94967 41.5998 7.45102 42.9241 6.36621L43.3545 6.44424C43.3545 6.44424 43.9011 7.33286 44.2913 7.06414C44.2913 7.06414 45.463 6.94967 45.6571 7.18084C45.6571 7.18084 46.0459 7.75796 45.8518 9.27388C45.8518 9.27388 45.6208 9.93015 46.7516 9.93015C46.7516 9.93015 48.0415 9.69641 47.8831 10.8966C47.8831 10.8966 48.2343 12.2531 46.0888 12.061C46.0888 12.061 45.8142 12.4478 45.8518 12.7198C45.8518 12.7198 45.8142 17.1332 45.7746 17.6395C45.7746 17.6395 45.737 18.3372 46.6717 18.297C46.6717 18.297 47.9227 18.2171 47.9643 19.3419C47.9643 19.3419 48.1188 20.8139 46.3212 20.5413C46.3212 20.5413 45.7746 20.6199 45.6934 20.9684L45.6208 22.9051C45.6208 22.9051 45.6571 23.8735 44.5659 23.6398C44.4101 23.6398 38.4767 23.7593 37.967 23.6048C37.967 23.6048 37.6911 23.5659 37.6152 23.7177Z" fill="white"/>
<path d="M25.0032 30.1917C25.0032 30.1917 25.2772 30.0775 25.3544 29.8861C25.3544 29.8861 26.1756 29.8069 26.2905 29.6914L28.869 29.8861C28.869 29.8861 31.406 30.0775 32.4992 29.2993C32.4992 29.2993 32.8919 29.2993 33.1659 29.4174C33.1659 29.4174 33.7092 29.5356 33.865 29.764L35.3503 29.725C35.3503 29.725 36.2092 29.999 36.1293 30.5422V31.2373C36.1293 31.2373 35.9722 32.6328 36.363 32.712H37.4978C37.4978 32.712 38.4359 33.1371 38.3177 33.679C38.3177 33.679 38.3573 34.4507 37.5387 34.6078C37.5387 34.6078 36.7149 34.8388 36.4449 34.8025C36.4449 34.8025 36.1696 35.1497 36.1293 35.5755L36.0158 40.6503C36.0158 40.6503 35.9359 41.1923 36.7565 41.1157C36.7565 41.1157 37.9639 40.9989 38.3177 41.6596C38.3177 41.6596 38.6306 42.7811 38.0061 42.9745L37.5387 43.2049L36.5208 43.366C36.5208 43.366 36.0943 43.401 36.0534 44.1363V45.4902C36.0534 45.4902 36.0943 46.4229 35.3503 46.4229L34.2565 46.5008C34.2565 46.5008 33.9838 46.7298 33.4386 46.5754C33.4386 46.5754 26.8001 46.6942 26.5658 46.6156L25.7842 46.7721C25.7842 46.7721 24.926 47.547 24.2229 46.9635L23.6763 46.5371C23.6763 46.5371 23.2849 46.6156 23.1317 46.5754C22.9753 46.5371 15.7902 46.6539 15.7902 46.6539C15.7902 46.6539 14.2672 46.8117 14.1517 46.3047C14.1517 46.3047 13.957 44.331 14.0342 44.0947C14.0342 44.0947 14.0342 43.5165 13.6837 43.4789C13.6837 43.4789 12.1601 43.401 12.1211 43.2439C12.1211 43.2439 11.2999 42.6656 11.5343 42.0861C11.5343 42.0861 11.8095 41.3078 12.6281 41.2312C12.6281 41.2312 13.8771 41.4273 13.8771 41.0781C13.8771 41.0781 13.957 40.8451 13.957 40.4596C13.957 40.4596 14.0342 35.8475 13.9953 35.5379C13.9953 35.5379 14.1114 34.957 13.6038 34.957C13.6038 34.957 13.0572 35.1108 12.7073 34.8791C12.7073 34.8791 11.7699 34.9187 11.5752 34.1814C11.5752 34.1814 11.4181 33.718 11.6511 33.3265C11.6511 33.3265 12.0822 32.4757 13.3312 32.7483C13.3312 32.7483 14.0342 32.943 14.1115 32.4413L14.0752 30.5786C14.0752 30.5786 13.9167 30.0775 14.8931 29.8069C14.8931 29.8069 16.1427 30.1541 16.5315 29.5356C16.5315 29.5356 16.9626 28.6801 17.3099 29.2617C17.3099 29.2617 18.0545 29.9607 20.0845 29.8861C20.0845 29.8861 23.5997 29.6122 23.6763 29.764C23.6763 29.764 24.5358 29.8861 24.7689 30.1541L25.0032 30.1917Z" fill="white"/>
<path d="M14.39 23.7183C14.39 23.7183 13.959 25.0768 12.0458 23.6787L5.48729 23.5229C5.48729 23.5229 4.62841 23.7969 4.51025 22.9051C4.51025 22.9051 4.6674 21.1248 4.5862 20.969C4.5862 20.969 4.62844 20.4634 3.76827 20.4634C3.76827 20.4634 2.44267 20.6218 2.40438 19.4593C2.40438 19.4593 2.1687 18.2157 4.00325 18.2586C4.00325 18.2586 4.58618 18.5286 4.62842 17.7926C4.62842 17.7926 4.54989 12.7574 4.5862 12.3679C4.5862 12.3679 4.74594 11.9078 3.84748 11.8286C3.84748 11.8286 2.55753 12.0973 2.40438 11.2451C2.40438 11.2451 2.32451 9.96944 3.1827 9.89029C3.1827 9.89029 4.23694 9.96944 4.43301 9.7015C4.43301 9.7015 4.66737 9.85128 4.62842 8.9208L4.66739 7.33459C4.66739 7.33459 4.78556 6.90836 5.44571 6.94737C5.44571 6.94737 6.65971 7.02395 6.81617 6.90836C6.81617 6.90836 7.08881 6.56155 7.16341 6.40411C7.16341 6.40411 7.79184 6.36768 7.90869 6.51857C7.90869 6.51857 8.84347 7.1421 12.4003 6.90836C12.4003 6.90836 12.9436 6.90836 13.0618 7.06441C13.0618 7.06441 13.7246 7.56694 14.1147 7.02395C14.1147 7.02395 14.7003 6.90836 16.4589 6.94737C16.4589 6.94737 18.3681 7.45017 19.6976 6.36768L20.126 6.44709C20.126 6.44709 20.672 7.33459 21.0661 7.06441C21.0661 7.06441 22.2352 6.94737 22.4319 7.18112C22.4319 7.18112 22.8234 7.76194 22.624 9.27416C22.624 9.27416 22.3923 9.93155 23.5238 9.93155C23.5238 9.93155 24.8111 9.7015 24.6566 10.8972C24.6566 10.8972 25.0091 12.2537 22.8617 12.061C22.8617 12.061 22.5864 12.4491 22.624 12.7197C22.624 12.7197 22.5864 17.1332 22.5481 17.6401C22.5481 17.6401 22.5105 18.3326 23.4466 18.2976C23.4466 18.2976 24.6962 18.2157 24.7338 19.3432C24.7338 19.3432 24.8896 20.8139 23.0954 20.5412C23.0954 20.5412 22.5481 20.6218 22.4682 20.969L22.3923 22.9051C22.3923 22.9051 22.4319 23.8734 21.3354 23.6424C21.1796 23.6424 15.2489 23.7572 14.7392 23.6048C14.7392 23.6048 14.4666 23.5658 14.39 23.7183Z" fill="white"/>
<path d="M37.6152 23.7177C37.6152 23.7177 37.1854 25.0762 35.275 23.6801L28.7151 23.523C28.7151 23.523 27.8563 23.7969 27.7394 22.9051C27.7394 22.9051 27.8965 21.1242 27.8166 20.9684C27.8166 20.9684 27.8562 20.4654 26.9941 20.4654C26.9941 20.4654 25.6692 20.6198 25.6295 19.4561C25.6295 19.4561 25.3979 18.2171 27.2311 18.258C27.2311 18.258 27.8166 18.528 27.8563 17.7907C27.8563 17.7907 27.779 12.7535 27.8166 12.3686C27.8166 12.3686 27.9738 11.9059 27.074 11.8267C27.074 11.8267 25.7867 12.0973 25.6295 11.2478C25.6295 11.2478 25.5523 9.96916 26.4125 9.89002C26.4125 9.89002 27.4661 9.96916 27.6608 9.69641C27.6608 9.69641 27.8965 9.84955 27.8563 8.92449L27.8965 7.33286C27.8965 7.33286 28.0094 6.90809 28.6748 6.94967C28.6748 6.94967 29.8855 7.02624 30.044 6.90809C30.044 6.90809 30.314 6.56127 30.3939 6.40384C30.3939 6.40384 31.0197 6.36621 31.1352 6.52199C31.1352 6.52199 32.0726 7.14183 35.6255 6.90809C35.6255 6.90809 36.1728 6.90809 36.287 7.06414C36.287 7.06414 36.9531 7.56667 37.3426 7.02624C37.3426 7.02624 37.9281 6.90809 39.6841 6.94967C39.6841 6.94967 41.5998 7.45102 42.9241 6.36621L43.3545 6.44424C43.3545 6.44424 43.9011 7.33286 44.2913 7.06414C44.2913 7.06414 45.463 6.94967 45.6571 7.18084C45.6571 7.18084 46.0459 7.75796 45.8518 9.27388C45.8518 9.27388 45.6208 9.93015 46.7516 9.93015C46.7516 9.93015 48.0415 9.69641 47.8831 10.8966C47.8831 10.8966 48.2343 12.2531 46.0888 12.061C46.0888 12.061 45.8142 12.4478 45.8518 12.7198C45.8518 12.7198 45.8142 17.1332 45.7746 17.6395C45.7746 17.6395 45.737 18.3372 46.6717 18.297C46.6717 18.297 47.9227 18.2171 47.9643 19.3419C47.9643 19.3419 48.1188 20.8139 46.3212 20.5413C46.3212 20.5413 45.7746 20.6199 45.6934 20.9684L45.6208 22.9051C45.6208 22.9051 45.6571 23.8735 44.5659 23.6398C44.4101 23.6398 38.4767 23.7593 37.967 23.6048C37.967 23.6048 37.6911 23.5659 37.6152 23.7177Z" fill="#282828"/>
<path d="M37.6139 23.7187C37.6139 23.7187 37.1848 25.0772 35.2743 23.6811L28.7131 23.524C28.7131 23.524 27.8536 23.798 27.7374 22.9055C27.7374 22.9055 27.8959 21.1239 27.8147 20.9681C27.8147 20.9681 27.8536 20.4651 26.9934 20.4651C26.9934 20.4651 25.6672 20.6216 25.6276 19.4571C25.6276 19.4571 25.3959 18.2175 27.2291 18.2577C27.2291 18.2577 27.8146 18.5284 27.8536 17.7917C27.8536 17.7917 27.7764 12.7545 27.8147 12.3683C27.8147 12.3683 27.9731 11.905 27.0733 11.8264C27.0733 11.8264 25.7847 12.097 25.6276 11.2475C25.6276 11.2475 25.5517 9.96743 26.4105 9.88967C26.4105 9.88967 27.4634 9.96743 27.6588 9.69606C27.6588 9.69606 27.8958 9.84921 27.8536 8.92276L27.8958 7.3314C27.8958 7.3314 28.0074 6.90662 28.6748 6.94814C28.6748 6.94814 29.8849 7.02478 30.042 6.90662C30.042 6.90662 30.312 6.56093 30.3932 6.40349C30.3932 6.40349 31.0177 6.36475 31.1345 6.5208C31.1345 6.5208 32.0706 7.14036 35.6248 6.90662C35.6248 6.90662 36.1721 6.90662 36.2863 7.06234C36.2863 7.06234 36.9524 7.5652 37.3419 7.02478C37.3419 7.02478 37.9274 6.90662 39.6834 6.94814C39.6834 6.94814 41.5992 7.44955 42.9241 6.36475L43.3551 6.44139C43.3551 6.44139 43.9011 7.33139 44.2906 7.06234C44.2906 7.06234 45.4623 6.94814 45.6564 7.17792C45.6564 7.17792 46.0466 7.75762 45.8525 9.27096C45.8525 9.27096 45.6195 9.92981 46.7523 9.92981C46.7523 9.92981 48.0409 9.69607 47.8824 10.895C47.8824 10.895 48.233 12.2528 46.0882 12.0594C46.0882 12.0594 45.8149 12.4462 45.8525 12.7195C45.8525 12.7195 45.8149 17.1329 45.7752 17.6379C45.7752 17.6379 45.7356 18.3356 46.6724 18.298C46.6724 18.298 47.924 18.2175 47.965 19.3416C47.965 19.3416 48.1181 20.8136 46.3212 20.5404C46.3212 20.5404 45.7753 20.6216 45.6941 20.9681L45.6195 22.9055C45.6195 22.9055 45.6564 23.8745 44.5665 23.6408C44.4107 23.6408 38.4754 23.759 37.9664 23.6045C37.9664 23.6045 37.6904 23.5663 37.6139 23.7187Z" stroke="#282828" stroke-width="0.0133333"/>
<path d="M30.2366 7.75932C30.2366 7.75932 30.3139 8.53494 30.3139 8.73112C30.3139 8.92327 30.1984 19.9228 30.1984 19.9228C30.1984 19.9228 30.3139 20.7749 29.5752 21.2027C29.5752 21.2027 29.3771 21.2779 29.3408 20.736L29.4167 9.11946C29.4167 9.11946 29.4953 7.68249 30.2366 7.75932Z" fill="white"/>
<path d="M30.2377 7.75786C30.2377 7.75786 30.3136 8.53347 30.3136 8.72965C30.3136 8.923 30.1994 19.9239 30.1994 19.9239C30.1994 19.9239 30.3136 20.7761 29.5748 21.2019C29.5748 21.2019 29.3768 21.2791 29.3379 20.7372L29.4164 9.11799C29.4164 9.11799 29.4937 7.68102 30.2377 7.75786Z" stroke="#282828" stroke-width="0.016"/>
<path d="M28.9495 21.3168C28.9495 21.3168 29.0267 10.3942 28.9904 10.2001C28.9495 10.0093 29.0267 10.3585 29.0267 10.3585C29.0267 10.3585 28.9099 8.45785 29.4182 7.68118C29.4182 7.68118 29.2598 7.02629 28.3626 7.83835L28.3237 9.4245C28.3237 9.4245 28.3237 10.317 27.5051 10.278C27.5051 10.278 26.5677 10.2377 26.1379 10.6642C26.1379 10.6642 25.9036 11.5177 26.8007 11.3645C26.8007 11.3645 28.2068 11.3645 28.2854 11.9415L28.2068 17.7919C28.2068 17.7919 28.5197 18.7649 27.4279 18.7649C27.4279 18.7649 26.0964 18.6817 26.1379 19.495C26.1379 19.495 26.4126 20.1914 27.5441 19.9616C27.5441 19.9616 28.3626 20.1135 28.3237 20.8917V22.3624C28.3237 22.3624 28.2451 22.9473 29.0267 22.9836H35.1173C35.1173 22.9836 35.4282 23.0212 35.4282 22.6337C35.4282 22.6337 35.3899 22.3248 34.9225 22.3248L29.848 22.2469C29.848 22.2469 29.0267 22.5195 28.9495 21.3168Z" fill="white"/>
<path d="M30.1207 21.2989C30.1207 21.2989 29.9636 21.8409 30.5492 21.7273H34.5708L35.6613 21.9623C35.6613 21.9623 36.7928 21.6884 35.6613 21.0699C35.6613 21.0699 32.0708 21.1055 31.7592 21.0296C31.7592 21.0296 31.0165 20.8375 30.8568 20.7986C30.8568 20.7986 30.4706 20.6441 30.1207 21.2989Z" fill="white"/>
<path d="M30.1197 21.2987C30.1197 21.2987 29.9627 21.842 30.5482 21.7291H34.5711L35.6623 21.9635C35.6623 21.9635 36.7945 21.6889 35.6623 21.069C35.6623 21.069 32.0711 21.104 31.7576 21.0301C31.7576 21.0301 31.0156 20.836 30.8571 20.7971C30.8571 20.7971 30.4696 20.6426 30.1197 21.2987Z" stroke="#282828" stroke-width="0.016"/>
<path d="M36.7943 21.8422C36.7943 21.8422 36.0536 21.8422 36.0912 22.8126C36.0912 22.8126 36.1698 23.5453 36.9501 23.5453C36.9501 23.5453 37.6512 23.4311 37.5766 22.6568C37.5766 22.6568 37.1455 21.6884 36.7943 21.8422Z" fill="white"/>
<path d="M37.3424 21.4567C37.3424 21.4567 37.6929 21.0705 37.9286 21.0705C37.9286 21.0705 41.8327 21.4171 42.4915 20.9537C42.4915 20.9537 43.081 20.8382 43.2375 20.9537C43.2375 20.9537 43.8223 21.4171 43.8223 21.689C43.8223 21.689 43.7841 22.0395 43.081 21.8409C43.081 21.8409 38.6686 21.8838 38.4342 21.8838C38.4342 21.8838 37.2222 22.1531 37.3424 21.4567Z" fill="white"/>
<path d="M37.3404 21.456C37.3404 21.456 37.6909 21.0686 37.9266 21.0686C37.9266 21.0686 41.8321 21.4158 42.4922 20.9517C42.4922 20.9517 43.0811 20.8362 43.2382 20.9517C43.2382 20.9517 43.8224 21.4158 43.8224 21.6897C43.8224 21.6897 43.7847 22.0402 43.081 21.8415C43.081 21.8415 38.6666 21.8845 38.4323 21.8845C38.4323 21.8845 37.2203 22.1538 37.3404 21.456Z" stroke="#282828" stroke-width="0.016"/>
<path d="M37.8486 22.7119C37.8486 22.7119 37.8486 22.3984 38.3959 22.3984L43.8599 22.3607C43.8599 22.3607 44.3689 22.6327 44.3689 21.7046C44.3689 21.7046 44.5689 17.4826 44.5868 12.8335C44.5934 11.4493 44.6568 9.99776 44.6072 8.65241C44.6072 8.65241 44.4858 8.07041 44.3287 7.95225C44.3287 7.95225 44.3286 7.33387 44.9934 7.56648C44.9934 7.56648 45.579 7.6055 45.4232 8.4992L45.4641 9.8491C45.4641 9.8491 45.3459 10.4334 46.3975 10.277C46.3975 10.277 47.4505 10.4334 47.4927 10.8183C47.4927 10.8183 47.8043 11.5965 46.5573 11.5173H45.6549C45.6549 11.5173 45.2661 11.749 45.3829 12.215L45.2661 17.8331C45.2661 17.8331 45.1875 18.7995 46.1256 18.7632C46.1256 18.7632 47.1 18.7229 47.296 19.0332C47.296 19.0332 47.964 20.0016 46.517 19.9237C46.517 19.9237 45.6186 19.8834 45.4232 20.0405C45.4232 20.0405 45.2661 20.2326 45.1492 22.0551C45.1492 22.0551 45.2291 23.1403 44.4085 23.0208C44.4085 23.0208 38.9801 23.0974 38.4738 22.9832C38.4738 22.9832 37.9272 23.1403 37.8486 22.7119Z" fill="white"/>
<path d="M30.8224 7.40722L30.7043 19.8447C30.7043 19.8447 30.6666 20.4216 31.6423 20.5384C31.6423 20.5384 32.7738 20.6539 33.0451 20.5384C33.0451 20.5384 33.7911 20.4982 35.7009 20.5774C35.7009 20.5774 36.1716 21.0467 36.2112 20.4605C36.2112 20.4605 36.5202 10.394 36.3683 8.29723C36.3683 8.29723 36.3254 7.40722 35.664 7.3682C35.664 7.3682 32.6966 7.60591 32.4226 7.3682L31.2509 7.06152C31.2509 7.06152 30.7822 7.09908 30.8224 7.40722Z" fill="white"/>
<path d="M36.9897 8.02932C36.9897 8.02932 36.8735 13.8785 36.9124 14.0719L36.8352 18.9897L36.6768 20.6954C36.6768 20.6954 36.9124 21.0432 37.1078 20.8122C37.1078 20.8122 38.3568 20.498 39.1371 20.6201C39.1371 20.6201 41.6384 20.8505 42.1441 20.4604C42.1441 20.4604 42.5355 20.6538 42.6497 20.0339C42.6497 20.0339 42.8042 9.19215 42.7323 8.99854C42.7323 8.99854 42.8828 7.44473 42.8042 7.29383C42.8042 7.29383 42.7699 6.94563 42.1045 7.2537C42.1045 7.2537 42.181 7.56547 38.4743 7.44474C38.4743 7.44474 37.0695 7.40691 36.9897 8.02932Z" fill="white"/>
<path d="M43.1987 7.87586L43.1611 20.1132C43.1611 20.1132 43.4727 21.2017 43.9797 21.0875C43.9797 21.0875 44.0556 20.8525 44.0939 20.4651L44.2523 8.80488C44.2523 8.80488 43.8589 6.94935 43.1987 7.87586Z" fill="white"/>
<path d="M43.1984 7.8744L43.1602 20.1144C43.1602 20.1144 43.4731 21.2036 43.9801 21.0887C43.9801 21.0887 44.0573 20.8537 44.0956 20.4662L44.252 8.80342C44.252 8.80342 43.8599 6.94788 43.1984 7.8744Z" stroke="#282828" stroke-width="0.016"/>
<path d="M38.4046 11.5404C38.2884 11.2308 39.0688 11.1919 39.0688 11.1919L39.4602 11.2685C39.7342 11.2308 40.0075 11.3477 40.0075 11.3477C40.2801 11.7728 39.8114 12.0038 39.8114 12.0038L39.6556 12.5095C39.6153 12.9365 39.6556 16.6166 39.6556 16.6166C39.7342 16.8074 40.0458 17.1546 40.0458 17.1546C40.0458 17.5051 39.6154 17.4285 39.6154 17.4285L38.4845 17.4674C38.1327 17.4285 38.2489 17.0397 38.2489 17.0397C38.6397 16.8463 38.7572 16.1473 38.7572 16.1473V12.3147L38.4046 11.5404Z" fill="#282828"/>
<path d="M33.1353 15.143L33.058 16.3437L33.4066 16.9233C33.6436 17.2329 33.2521 17.4679 33.2521 17.4679L32.0024 17.3517C31.7707 17.2329 32.0024 16.8467 32.0024 16.8467C32.316 16.6559 32.355 16.149 32.355 16.149L32.316 13.9027L32.355 12.2762C32.355 12.0808 32.0434 11.7356 32.0434 11.7356C31.7707 11.6966 31.848 11.3481 31.848 11.3481C31.9252 11.1534 32.5867 11.2689 32.5867 11.2689H34.2291C35.7911 11.7732 35.5567 12.8967 35.5567 12.8967C35.6749 14.0182 34.4648 14.4855 34.4648 14.4855L34.3836 15.1054L35.5177 16.8843C35.7125 17.0401 35.6749 17.1972 35.6749 17.1972C35.5178 17.6236 34.8913 17.1972 34.8913 17.1972L33.4878 15.0268C33.3696 14.8704 33.1353 15.143 33.1353 15.143ZM33.1749 12.0808C33.2125 12.9356 33.2125 14.0974 33.2125 14.0974C33.9565 14.6796 34.3836 13.8637 34.3836 13.8637C35.358 12.9356 34.3836 12.0808 34.2291 11.8511C34.0707 11.6174 33.2904 11.8108 33.2904 11.8108L33.1749 12.0808Z" fill="#282828"/>
<path d="M25.0032 30.1917C25.0032 30.1917 25.2772 30.0775 25.3544 29.8861C25.3544 29.8861 26.1756 29.8069 26.2905 29.6914L28.869 29.8861C28.869 29.8861 31.406 30.0775 32.4992 29.2993C32.4992 29.2993 32.8919 29.2993 33.1659 29.4174C33.1659 29.4174 33.7092 29.5356 33.865 29.764L35.3503 29.725C35.3503 29.725 36.2092 29.999 36.1293 30.5422V31.2373C36.1293 31.2373 35.9722 32.6328 36.363 32.712H37.4978C37.4978 32.712 38.4359 33.1371 38.3177 33.679C38.3177 33.679 38.3573 34.4507 37.5387 34.6078C37.5387 34.6078 36.7149 34.8388 36.4449 34.8025C36.4449 34.8025 36.1696 35.1497 36.1293 35.5755L36.0158 40.6503C36.0158 40.6503 35.9359 41.1923 36.7565 41.1157C36.7565 41.1157 37.9639 40.9989 38.3177 41.6596C38.3177 41.6596 38.6306 42.7811 38.0061 42.9745L37.5387 43.2049L36.5208 43.366C36.5208 43.366 36.0943 43.401 36.0534 44.1363V45.4902C36.0534 45.4902 36.0943 46.4229 35.3503 46.4229L34.2565 46.5008C34.2565 46.5008 33.9838 46.7298 33.4386 46.5754C33.4386 46.5754 26.8001 46.6942 26.5658 46.6156L25.7842 46.7721C25.7842 46.7721 24.926 47.547 24.2229 46.9635L23.6763 46.5371C23.6763 46.5371 23.2849 46.6156 23.1317 46.5754C22.9753 46.5371 15.7902 46.6539 15.7902 46.6539C15.7902 46.6539 14.2672 46.8117 14.1517 46.3047C14.1517 46.3047 13.957 44.331 14.0342 44.0947C14.0342 44.0947 14.0342 43.5165 13.6837 43.4789C13.6837 43.4789 12.1601 43.401 12.1211 43.2439C12.1211 43.2439 11.2999 42.6656 11.5343 42.0861C11.5343 42.0861 11.8095 41.3078 12.6281 41.2312C12.6281 41.2312 13.8771 41.4273 13.8771 41.0781C13.8771 41.0781 13.957 40.8451 13.957 40.4596C13.957 40.4596 14.0342 35.8475 13.9953 35.5379C13.9953 35.5379 14.1114 34.957 13.6038 34.957C13.6038 34.957 13.0572 35.1108 12.7073 34.8791C12.7073 34.8791 11.7699 34.9187 11.5752 34.1814C11.5752 34.1814 11.4181 33.718 11.6511 33.3265C11.6511 33.3265 12.0822 32.4757 13.3312 32.7483C13.3312 32.7483 14.0342 32.943 14.1115 32.4413L14.0752 30.5786C14.0752 30.5786 13.9167 30.0775 14.8931 29.8069C14.8931 29.8069 16.1427 30.1541 16.5315 29.5356C16.5315 29.5356 16.9626 28.6801 17.3099 29.2617C17.3099 29.2617 18.0545 29.9607 20.0845 29.8861C20.0845 29.8861 23.5997 29.6122 23.6763 29.764C23.6763 29.764 24.5358 29.8861 24.7689 30.1541L25.0032 30.1917Z" fill="#282828"/>
<path d="M25.0026 30.1436C25.0026 30.1436 25.274 30.0307 25.3538 29.8366C25.3538 29.8366 26.1738 29.7574 26.2899 29.6419L28.8678 29.8366C28.8678 29.8366 31.4054 30.0307 32.4986 29.2525C32.4986 29.2525 32.8914 29.2525 33.1653 29.3706C33.1653 29.3706 33.71 29.4875 33.8631 29.7158L35.3511 29.6782C35.3511 29.6782 36.2086 29.9522 36.1288 30.4941V31.1905C36.1288 31.1905 35.9729 32.586 36.3631 32.6625H37.4972C37.4972 32.6625 38.434 33.0903 38.3185 33.6322C38.3185 33.6322 38.3574 34.4039 37.5382 34.561C37.5382 34.561 36.7156 34.792 36.4456 34.7544C36.4456 34.7544 36.171 35.1029 36.1288 35.5287L36.0139 40.6048C36.0139 40.6048 35.9353 41.1441 36.7546 41.0689C36.7546 41.0689 37.964 40.9547 38.3185 41.6115C38.3185 41.6115 38.6314 42.7343 38.0069 42.929L37.5382 43.1607L36.5202 43.3178C36.5202 43.3178 36.0924 43.3555 36.0541 44.0882V45.4473C36.0541 45.4473 36.0924 46.3761 35.3511 46.3761L34.2572 46.454C34.2572 46.454 33.9839 46.6857 33.438 46.5312C33.438 46.5312 26.7996 46.6474 26.5652 46.5675L25.7823 46.7239C25.7823 46.7239 24.9254 47.4996 24.2223 46.9154L23.6751 46.489C23.6751 46.489 23.2849 46.5675 23.1305 46.5312C22.9734 46.4889 15.7903 46.6084 15.7903 46.6084C15.7903 46.6084 14.266 46.7649 14.1492 46.2592C14.1492 46.2592 13.9551 44.2829 14.0323 44.0492C14.0323 44.0492 14.0323 43.471 13.6805 43.432C13.6805 43.432 12.1588 43.3555 12.1185 43.199C12.1185 43.199 11.298 42.6175 11.5323 42.0379C11.5323 42.0379 11.8076 41.261 12.6275 41.1831C12.6275 41.1831 13.8752 41.3818 13.8752 41.0286C13.8752 41.0286 13.9551 40.7969 13.9551 40.4127C13.9551 40.4127 14.0323 35.8006 13.9947 35.4911C13.9947 35.4911 14.1109 34.9075 13.6019 34.9075C13.6019 34.9075 13.0559 35.0626 12.7048 34.8323C12.7048 34.8323 11.7687 34.8706 11.5733 34.1345C11.5733 34.1345 11.4148 33.6712 11.6505 33.281C11.6505 33.281 12.079 32.4288 13.3293 32.7001C13.3293 32.7001 14.0323 32.8969 14.1109 32.3939L14.0719 30.5317C14.0719 30.5317 13.9148 30.0307 14.8918 29.7574C14.8918 29.7574 16.1408 30.1073 16.531 29.4875C16.531 29.4875 16.9594 28.6339 17.3093 29.2122C17.3093 29.2122 18.0546 29.9112 20.0826 29.8366C20.0826 29.8366 23.5992 29.5627 23.6751 29.7158C23.6751 29.7158 24.5353 29.8366 24.7683 30.1073L25.0026 30.1436Z" stroke="#282828" stroke-width="0.0133333"/>
<path d="M26.0181 45.4142C26.0181 45.4142 26.4881 45.1793 26.801 45.2598C27.1139 45.3364 31.6808 45.2222 31.6808 45.2222C31.6808 45.2222 33.6712 45.3753 33.9854 45.1014L34.4501 44.9482C34.4501 44.9482 34.6469 44.7165 34.6469 44.4089C34.6469 44.096 34.6858 43.0498 34.6858 43.0498L34.8053 42.6656C34.8053 42.6656 34.7644 42.2781 34.8053 31.9337C34.8053 31.9337 34.9585 31.1238 34.4501 30.6175C34.4501 30.6175 34.4502 30.3105 34.6059 30.3475C34.7644 30.3891 34.6858 30.3891 34.6858 30.3891C34.6858 30.3891 35.3882 30.1911 35.5031 30.4624C35.5031 30.4624 35.8187 31.3891 35.544 31.9337C35.544 31.9337 35.4654 33.0585 36.0556 33.0585C36.0556 33.0585 36.286 33.2922 36.7554 33.174C36.7554 33.174 37.77 33.2922 37.77 33.5991C37.77 33.5991 37.77 34.2995 37.067 34.1827L36.1282 34.2579C36.1282 34.2579 35.5031 34.3774 35.583 35.1108C35.6628 35.8468 35.544 41.115 35.544 41.115C35.544 41.115 35.544 41.7375 36.5224 41.6986C36.5224 41.6986 37.7311 41.6583 37.7311 42.0048C37.7311 42.0048 38.0427 42.7798 37.1851 42.8201C37.1851 42.8201 35.544 42.7798 35.6629 43.2432C35.6629 43.2432 35.544 44.331 35.4655 44.5218C35.4655 44.5218 35.6252 45.4142 35.4265 45.5707C35.4265 45.5707 35.311 46.0717 34.2581 45.9951C34.2581 45.9951 27.5437 45.9575 26.4881 46.0341C26.4881 46.0341 25.8623 45.9575 26.0181 45.4142Z" fill="white"/>
<path d="M24.8106 44.6797C24.8106 44.6797 25.4734 44.7939 25.4734 45.415C25.4734 46.0335 25.5123 46.3827 25.1202 46.4593C24.7307 46.5372 24.303 46.423 24.1874 45.92C24.0673 45.415 24.262 44.7939 24.8106 44.6797Z" fill="white"/>
<path d="M25.5899 44.37C25.5899 44.37 26.2923 43.902 26.5656 43.9831C26.5656 43.9831 30.1172 44.2129 31.213 44.0228C32.3056 43.828 31.6415 43.9831 31.6415 43.9831C31.6415 43.9831 32.5796 43.9832 32.8502 43.632C32.8502 43.632 33.1255 43.5574 33.2813 43.828L33.8642 44.4505C33.8642 44.4505 33.9084 44.834 33.2417 44.7951C33.2417 44.7951 26.8759 44.7951 26.6838 44.834C26.6838 44.834 25.4737 45.0248 25.5899 44.37Z" fill="white"/>
<path d="M25.5879 44.3701C25.5879 44.3701 26.2903 43.9021 26.5636 43.982C26.5636 43.982 30.1178 44.213 31.2124 44.0229C32.3062 43.8269 31.6408 43.982 31.6408 43.982C31.6408 43.982 32.5795 43.982 32.8508 43.6295C32.8508 43.6295 33.1248 43.5569 33.2819 43.8269L33.8648 44.4507C33.8648 44.4507 33.9077 44.8355 33.2423 44.7946C33.2423 44.7946 26.8765 44.7946 26.6818 44.8355C26.6818 44.8355 25.4718 45.0263 25.5879 44.3701Z" stroke="#282828" stroke-width="0.016"/>
<path d="M16.3377 30.6187C16.3377 30.6187 16.6117 30.6187 16.5721 31.084L16.4922 42.7803C16.4922 42.7803 16.6117 43.5572 15.9476 44.0589C15.9476 44.0589 15.5938 44.484 15.5938 43.8279L15.7535 31.8973C15.7535 31.8973 15.7905 31.0055 16.3377 30.6187Z" fill="white"/>
<path d="M16.3375 30.6177C16.3375 30.6177 16.6114 30.6177 16.5744 31.0824L16.4919 42.7826C16.4919 42.7826 16.6114 43.5589 15.946 44.0606C15.946 44.0606 15.5908 44.4857 15.5908 43.8295L15.7513 31.8969C15.7513 31.8969 15.7889 31.0045 16.3375 30.6177Z" stroke="#282828" stroke-width="0.016"/>
<path d="M15.713 30.6968C15.713 30.6968 15.2443 31.5503 15.2833 31.7457L15.2444 34.3372C15.2444 34.3372 15.2048 36.0033 15.2444 36.198C15.2833 36.3901 15.2048 41.2715 15.2048 41.2715C15.2048 41.2715 15.1658 42.199 15.2048 42.5105V44.6011C15.2048 44.6011 15.1268 45.5325 15.8286 45.2962C15.8286 45.2962 22.7014 45.143 23.1318 45.2612C23.1318 45.2612 23.7543 45.376 23.5232 45.6863C23.5232 45.6863 23.5232 45.9596 23.0902 45.8797C23.0902 45.8797 19.8502 46.1873 16.9231 46.0738C16.9231 46.0738 14.971 46.1873 14.8516 45.9596C14.8516 45.9596 14.5413 45.92 14.5413 44.7952C14.5413 44.7952 14.5413 43.7515 14.4654 43.5581C14.4654 43.5581 14.5413 43.0089 13.5656 42.8967C13.5656 42.8967 12.1998 43.1304 12.1602 42.3171C12.1602 42.3171 12.3542 41.7362 13.6831 41.8122C13.6831 41.8122 14.6588 41.9679 14.4654 41.191L14.5802 35.462C14.5802 35.462 14.7004 34.4507 14.0343 34.4105C14.0343 34.4105 13.4118 34.3788 13.2131 34.4507C13.2131 34.4507 12.0816 34.4507 12.1602 33.7972C12.1602 33.7972 12.5503 33.0982 13.6831 33.254C13.6831 33.254 14.5413 33.4071 14.5802 32.4414C14.5802 32.4414 14.5413 30.4644 15.0087 30.3892C15.0087 30.3892 15.987 30.4241 15.713 30.6968Z" fill="white"/>
<path d="M16.8824 43.5156C16.8824 43.5156 17.4297 44.0939 18.3295 44.0602L23.6344 44.1355C23.6344 44.1355 24.2239 44.177 24.187 44.484C24.187 44.484 24.1038 44.948 23.404 44.7929L17.0006 44.7163L16.2962 44.7593C16.2962 44.7593 15.8269 44.6787 16.5722 43.7889L16.8824 43.5156Z" fill="white"/>
<path d="M16.8807 43.5156C16.8807 43.5156 17.4286 44.0945 18.3297 44.0595L23.6359 44.1361C23.6359 44.1361 24.2234 44.1764 24.1885 44.484C24.1885 44.484 24.1059 44.9494 23.4062 44.7962L16.9988 44.7196L16.2945 44.7599C16.2945 44.7599 15.827 44.6807 16.5704 43.7882L16.8807 43.5156Z" stroke="#282828" stroke-width="0.016"/>
<path d="M33.2812 43.0096C33.2812 43.0096 33.75 43.902 33.9843 44.0242C33.9843 44.0242 34.4141 44.5232 34.2979 43.6334L34.3751 32.477C34.3751 32.477 34.257 32.0882 34.3751 31.471L33.9071 30.6189C33.9071 30.6189 33.3981 30.2314 33.3981 30.8499L33.3209 42.7429L33.2812 43.0096Z" fill="white"/>
<path d="M33.2793 43.0114C33.2793 43.0114 33.7493 43.9026 33.985 44.0254C33.985 44.0254 34.4148 44.5257 34.2986 43.6333L34.3758 32.4743C34.3758 32.4743 34.2576 32.0888 34.3758 31.4709L33.9071 30.6181C33.9071 30.6181 33.3961 30.2319 33.3961 30.8505L33.3189 42.7441L33.2793 43.0114Z" stroke="#282828" stroke-width="0.016"/>
<path d="M24.6141 37.7062C24.6141 37.7062 24.6531 38.633 24.5343 39.5215C24.4709 40.0132 24.692 42.2761 24.4947 43.4359C24.4947 43.4359 24.459 43.8247 23.6358 43.4774C23.6358 43.4774 18.6398 43.5916 18.484 43.4359C18.484 43.4359 17.1182 43.4774 17 42.7784C17 42.7784 17.1954 37.4725 17.0786 37.2752C17.0786 37.2752 17 34.3714 17.0786 34.1007C17.0786 34.1007 17.1954 31.4287 17.1182 31.1191C17.1182 31.1191 17.1571 30.4992 17.0396 30.1877C17.0396 30.1877 17.0396 29.8002 17.7044 30.0319C17.7044 30.0319 17.9354 30.4596 19.2254 30.2695C19.2254 30.2695 20.1641 30.4227 21.0625 30.3058C21.0625 30.3058 23.0516 30.1514 23.5612 30.3058C23.5612 30.3058 24.3428 30.1514 24.5732 31.0062L24.5343 33.4057L24.7673 34.18L25.0419 33.9879L25.1574 33.4057L25.197 30.8491C25.197 30.8491 25.3529 30.3824 25.98 30.3058C25.98 30.3058 26.9557 30.1877 27.1141 30.2695C27.2699 30.3435 29.3745 30.4596 29.9633 30.3435C30.5475 30.228 30.663 30.7309 32.423 29.8418C32.423 29.8418 32.8917 29.8814 32.8917 30.1877C32.8917 30.1877 32.732 33.4849 32.8917 34.1007C32.8917 34.1007 32.8917 40.1426 32.7696 40.5691L32.8495 42.5058C32.8495 42.5058 32.9273 43.3586 31.5635 43.4359C31.5635 43.4359 32.423 43.5527 27.0316 43.3982C27.0316 43.3982 26.1741 43.3586 25.2373 43.7831C25.2373 43.7831 25.0419 43.7454 25.0419 43.2425C25.0419 43.2425 25.197 41.4239 25.0419 39.6383L24.9666 37.664L24.6141 37.7062Z" fill="white"/>
<path d="M21.0988 34.9581C21.0988 34.9581 21.2163 37.8229 21.0988 38.2097L21.0618 38.8315C21.0618 38.8315 21.2163 39.2546 21.4513 39.4117C21.4513 39.4117 21.6474 39.9524 21.1774 39.9147C21.1774 39.9147 20.203 39.8368 19.9686 39.8731C19.9686 39.8731 19.4201 39.8731 19.9686 39.18C19.9686 39.18 20.1634 38.9048 20.1231 38.2097C20.1231 38.2097 20.1231 34.9581 20.203 34.7653C20.203 34.7653 20.2802 34.3369 20.0063 34.2201L19.5362 34.2603L18.9533 34.8023C18.9533 34.8023 18.8345 35.3858 18.5605 34.7653V34.4524L18.9144 33.5237L19.1487 33.4834C19.1487 33.4834 19.4986 33.7164 19.8102 33.7963H21.6474L22.3102 33.4834C22.3102 33.4834 22.5822 33.5237 22.5076 33.8722C22.5076 33.8722 22.6218 34.7653 22.1148 34.8788C22.1148 34.8788 21.8018 34.7653 21.6474 34.3369C21.6474 34.3369 21.1397 34.0682 21.0988 34.9581Z" fill="#282828"/>
<path d="M29.7264 33.9126C29.7264 33.9126 28.2457 33.7951 28.2087 35.3833C28.2087 35.3833 28.0477 36.4705 29.6901 37.1682C29.6901 37.1682 30.9015 37.7464 30.8203 38.4818C30.8203 38.4818 30.6638 39.7993 29.3759 39.1419C29.3759 39.1419 28.752 38.8296 28.7936 38.4818C28.7936 38.4818 28.5949 38.0547 28.3619 38.1332C28.3619 38.1332 28.0873 38.2092 28.2087 39.4891C28.2087 39.4891 28.2087 39.9927 28.7936 39.4891L29.1019 39.5676C29.1019 39.5676 30.1575 40.4198 31.0533 39.3722C31.0533 39.3722 32.0317 38.4818 31.3266 37.3986C31.3266 37.3986 30.8203 36.6262 29.9231 36.2381C29.9231 36.2381 29.0636 35.8473 28.8702 35.1892C28.8702 35.1892 29.1435 34.0254 30.1958 34.6453C30.1958 34.6453 30.5872 35.1107 30.8203 35.1892C30.8203 35.1892 31.1332 35.1892 31.0533 34.4895L30.9794 33.9126C30.9794 33.9126 30.9015 33.4809 30.3522 33.9126C30.3522 33.9126 29.8446 34.1033 29.7264 33.9126Z" fill="#282828"/>
<path d="M24.9649 33.0963C25.2369 33.2937 25.2765 33.6798 25.2765 33.6798C26.0568 35.7314 26.7222 38.7171 26.7222 38.7171C26.9163 39.1006 27.2682 39.4121 27.2682 39.4121C27.9323 39.6432 27.2682 39.8359 27.2682 39.8359C26.9949 39.9541 26.0991 39.8003 26.0991 39.8003C25.6277 39.7178 25.8218 39.5666 25.8218 39.5666C26.0192 39.3732 25.8621 38.5963 25.8621 38.5963C25.8218 38.2893 25.4733 37.7843 25.4733 37.7843C25.3175 37.7058 25.0435 38.0543 25.0435 38.0543C25.0435 38.0543 24.6151 38.2101 24.5735 38.0543C24.5339 37.8972 24.2619 37.7507 24.2619 37.7507C23.7925 37.7507 23.5991 38.9052 23.5991 38.9052C23.8718 39.8749 23.5991 39.7178 23.5991 39.7178C23.3661 40.0307 22.6221 39.8003 22.6221 39.8003C22.2709 39.7178 22.5079 39.4471 22.5079 39.4471C22.935 39.3732 23.0512 38.9052 23.0512 38.9052C23.2479 38.6352 24.4949 33.6006 24.4949 33.6006C24.6151 33.367 24.691 32.9029 24.9649 33.0963ZM24.3431 35.6522C24.3021 35.8469 24.0275 36.9322 24.0275 36.9322L24.2619 37.3229C24.2619 37.3229 24.8877 37.3579 25.1208 37.3579C25.3525 37.3579 25.3947 37.1685 25.3947 36.9704C25.3947 36.7784 24.9649 35.6172 24.9649 35.6172L24.7676 35.3842L24.3431 35.6522Z" fill="#282828"/>
<path d="M14.39 23.7183C14.39 23.7183 13.959 25.0768 12.0458 23.6787L5.48729 23.5229C5.48729 23.5229 4.62841 23.7969 4.51025 22.9051C4.51025 22.9051 4.6674 21.1248 4.5862 20.969C4.5862 20.969 4.62844 20.4634 3.76827 20.4634C3.76827 20.4634 2.44267 20.6218 2.40438 19.4593C2.40438 19.4593 2.1687 18.2157 4.00325 18.2586C4.00325 18.2586 4.58618 18.5286 4.62842 17.7926C4.62842 17.7926 4.54989 12.7574 4.5862 12.3679C4.5862 12.3679 4.74594 11.9078 3.84748 11.8286C3.84748 11.8286 2.55753 12.0973 2.40438 11.2451C2.40438 11.2451 2.32451 9.96944 3.1827 9.89029C3.1827 9.89029 4.23694 9.96944 4.43301 9.7015C4.43301 9.7015 4.66737 9.85128 4.62842 8.9208L4.66739 7.33459C4.66739 7.33459 4.78556 6.90836 5.44571 6.94737C5.44571 6.94737 6.65971 7.02395 6.81617 6.90836C6.81617 6.90836 7.08881 6.56155 7.16341 6.40411C7.16341 6.40411 7.79184 6.36768 7.90869 6.51857C7.90869 6.51857 8.84347 7.1421 12.4003 6.90836C12.4003 6.90836 12.9436 6.90836 13.0618 7.06441C13.0618 7.06441 13.7246 7.56694 14.1147 7.02395C14.1147 7.02395 14.7003 6.90836 16.4589 6.94737C16.4589 6.94737 18.3681 7.45017 19.6976 6.36768L20.126 6.44709C20.126 6.44709 20.672 7.33459 21.0661 7.06441C21.0661 7.06441 22.2352 6.94737 22.4319 7.18112C22.4319 7.18112 22.8234 7.76194 22.624 9.27416C22.624 9.27416 22.3923 9.93155 23.5238 9.93155C23.5238 9.93155 24.8111 9.7015 24.6566 10.8972C24.6566 10.8972 25.0091 12.2537 22.8617 12.061C22.8617 12.061 22.5864 12.4491 22.624 12.7197C22.624 12.7197 22.5864 17.1332 22.5481 17.6401C22.5481 17.6401 22.5105 18.3326 23.4466 18.2976C23.4466 18.2976 24.6962 18.2157 24.7338 19.3432C24.7338 19.3432 24.8896 20.8139 23.0954 20.5412C23.0954 20.5412 22.5481 20.6218 22.4682 20.969L22.3923 22.9051C22.3923 22.9051 22.4319 23.8734 21.3354 23.6424C21.1796 23.6424 15.2489 23.7572 14.7392 23.6048C14.7392 23.6048 14.4666 23.5658 14.39 23.7183Z" fill="#282828"/>
<path d="M14.3886 23.7186C14.3886 23.7186 13.9582 25.0778 12.045 23.6797L5.48516 23.5239C5.48516 23.5239 4.62566 23.7978 4.50816 22.9047C4.50816 22.9047 4.66659 21.1244 4.5854 20.9686C4.5854 20.9686 4.62566 20.4643 3.76549 20.4643C3.76549 20.4643 2.43991 20.6228 2.40229 19.4597C2.40229 19.4597 2.1679 18.2154 4.00245 18.2583C4.00245 18.2583 4.58538 18.5283 4.62565 17.7929C4.62565 17.7929 4.54711 12.7557 4.5854 12.3676C4.5854 12.3676 4.74513 11.9062 3.84535 11.8283C3.84535 11.8283 2.55544 12.0976 2.40229 11.2441C2.40229 11.2441 2.3224 9.96771 3.18125 9.88995C3.18125 9.88995 4.23416 9.96771 4.43221 9.69891C4.43221 9.69891 4.66658 9.85094 4.62565 8.92046L4.66658 7.33286C4.66658 7.33286 4.78342 6.9069 5.44422 6.94703C5.44422 6.94703 6.65692 7.02248 6.81404 6.9069C6.81404 6.9069 7.08801 6.5612 7.1626 6.40377C7.1626 6.40377 7.78972 6.36621 7.90789 6.51823C7.90789 6.51823 8.84135 7.14064 12.3995 6.9069C12.3995 6.9069 12.9428 6.9069 13.061 7.06262C13.061 7.06262 13.7231 7.56548 14.1139 7.02248C14.1139 7.02248 14.7001 6.9069 16.4574 6.94703C16.4574 6.94703 18.3686 7.44732 19.6968 6.36621L20.1259 6.44536C20.1259 6.44536 20.6718 7.33286 21.0646 7.06262C21.0646 7.06262 22.2344 6.94703 22.4331 7.17827C22.4331 7.17827 22.8219 7.76047 22.6246 9.27124C22.6246 9.27124 22.3915 9.93127 23.523 9.93127C23.523 9.93127 24.8129 9.69892 24.6558 10.8955C24.6558 10.8955 25.0077 12.2534 22.8616 12.0593C22.8616 12.0593 22.5856 12.4481 22.6246 12.7194C22.6246 12.7194 22.5856 17.1328 22.5486 17.6384C22.5486 17.6384 22.509 18.3335 23.4458 18.2985C23.4458 18.2985 24.6948 18.2154 24.7344 19.3441C24.7344 19.3441 24.8888 20.8135 23.0946 20.5409C23.0946 20.5409 22.5486 20.6228 22.4687 20.9686L22.3915 22.9047C22.3915 22.9047 22.4331 23.8751 21.3359 23.6434C21.1801 23.6434 15.248 23.7569 14.7384 23.6044C14.7384 23.6044 14.4658 23.5668 14.3886 23.7186Z" stroke="#282828" stroke-width="0.0133333"/>
<path d="M7.01016 7.76186C7.01016 7.76186 7.08869 8.53484 7.08869 8.72844C7.08869 8.92212 6.96922 19.9227 6.96922 19.9227C6.96922 19.9227 7.08872 20.7775 6.34473 21.2013C6.34473 21.2013 6.15062 21.2805 6.11035 20.7385L6.19025 9.11823C6.19025 9.11823 6.26749 7.68384 7.01016 7.76186Z" fill="white"/>
<path d="M7.01145 7.76031C7.01145 7.76031 7.08937 8.53335 7.08937 8.72696C7.08937 8.92057 6.97055 19.9221 6.97055 19.9221C6.97055 19.9221 7.08938 20.7769 6.34473 21.2033C6.34473 21.2033 6.15062 21.2812 6.11035 20.7393L6.18759 9.11787C6.18759 9.11787 6.26614 7.68341 7.01145 7.76031Z" stroke="#282828" stroke-width="0.016"/>
<path d="M5.72103 21.3165C5.72103 21.3165 5.79696 10.3939 5.76 10.1992C5.72105 10.0081 5.79694 10.3563 5.79694 10.3563C5.79694 10.3563 5.68276 8.4606 6.18975 7.68386C6.18975 7.68386 6.03264 7.02502 5.13418 7.83701L5.09852 9.42606C5.09852 9.42606 5.09852 10.3173 4.27664 10.2784C4.27664 10.2784 3.33857 10.2381 2.90816 10.6672C2.90816 10.6672 2.6751 11.5174 3.57092 11.3642C3.57092 11.3642 4.97837 11.3642 5.05561 11.9412L4.97837 17.7916C4.97837 17.7916 5.29126 18.76 4.19674 18.76C4.19674 18.76 2.86987 18.6854 2.90816 19.4993C2.90816 19.4993 3.18143 20.1964 4.31556 19.9627C4.31556 19.9627 5.13417 20.1185 5.09852 20.8895V22.3654C5.09852 22.3654 5.01665 22.947 5.79694 22.9826H11.8888C11.8888 22.9826 12.201 23.0209 12.201 22.6328C12.201 22.6328 12.1614 22.3272 11.6954 22.3272L6.62148 22.2473C6.62148 22.2473 5.79695 22.5186 5.72103 21.3165Z" fill="white"/>
<path d="M6.77555 21.3958C6.77555 21.3958 6.62043 21.9403 7.20334 21.8202H11.2249L12.3188 22.0519C12.3188 22.0519 13.4543 21.7813 12.3188 21.1608C12.3188 21.1608 8.72696 21.2023 8.41339 21.1238C8.41339 21.1238 7.67338 20.9311 7.51693 20.8914C7.51693 20.8914 7.12543 20.7383 6.77555 21.3958Z" fill="white"/>
<path d="M6.77459 21.3947C6.77459 21.3947 6.61942 21.942 7.20233 21.8198H11.2259L12.3204 22.0535C12.3204 22.0535 13.4552 21.7835 12.3204 21.1611C12.3204 21.1611 8.72662 21.2027 8.41371 21.1221C8.41371 21.1221 7.67304 20.93 7.51592 20.8924C7.51592 20.8924 7.12381 20.7373 6.77459 21.3947Z" stroke="#282828" stroke-width="0.016"/>
<path d="M13.452 21.9398C13.452 21.9398 12.7086 21.9398 12.7476 22.9029C12.7476 22.9029 12.8262 23.6429 13.6058 23.6429C13.6058 23.6429 14.3088 23.5228 14.2329 22.7518C14.2329 22.7518 13.8018 21.7814 13.452 21.9398Z" fill="white"/>
<path d="M13.9974 21.5499C13.9974 21.5499 14.3473 21.1624 14.5843 21.1624C14.5843 21.1624 18.4864 21.5123 19.1505 21.0482C19.1505 21.0482 19.738 20.932 19.8918 21.0482C19.8918 21.0482 20.4774 21.5123 20.4774 21.7822C20.4774 21.7822 20.4391 22.1341 19.738 21.9407C19.738 21.9407 15.323 21.977 15.0906 21.977C15.0906 21.977 13.8792 22.247 13.9974 21.5499Z" fill="white"/>
<path d="M13.9964 21.5497C13.9964 21.5497 14.3476 21.1609 14.5833 21.1609C14.5833 21.1609 18.4867 21.5121 19.1509 21.048C19.1509 21.048 19.7397 20.9312 19.8928 21.048C19.8928 21.048 20.4784 21.5121 20.4784 21.7834C20.4784 21.7834 20.4408 22.1352 19.7397 21.9405C19.7397 21.9405 15.324 21.9781 15.0896 21.9781C15.0896 21.9781 13.8782 22.2487 13.9964 21.5497Z" stroke="#282828" stroke-width="0.016"/>
<path d="M14.623 22.7123C14.623 22.7123 14.623 22.4041 15.1663 22.4041L20.6363 22.3638C20.6363 22.3638 21.142 22.6318 21.142 21.705C21.142 21.705 21.342 17.4817 21.3599 12.8327C21.3671 11.4504 21.4285 9.99826 21.375 8.65298C21.375 8.65298 21.2588 8.07354 21.103 7.95393C21.103 7.95393 21.1031 7.33436 21.7691 7.56929C21.7691 7.56929 22.3507 7.606 22.1956 8.49581L22.2339 9.85218C22.2339 9.85218 22.1177 10.4332 23.172 10.2787C23.172 10.2787 24.2249 10.4332 24.2625 10.82C24.2625 10.82 24.5781 11.5969 23.3304 11.5177H22.4332C22.4332 11.5177 22.0418 11.7494 22.158 12.2155L22.0418 17.8309C22.0418 17.8309 21.9606 18.7986 22.9006 18.7636C22.9006 18.7636 23.8763 18.7234 24.0691 19.0323C24.0691 19.0323 24.7352 20.002 23.2894 19.9241C23.2894 19.9241 22.391 19.8838 22.1956 20.0383C22.1956 20.0383 22.0418 20.2357 21.9236 22.0536C21.9236 22.0536 22.0009 23.1381 21.181 23.0213C21.181 23.0213 15.7539 23.0965 15.2489 22.9823C15.2489 22.9823 14.7003 23.1381 14.623 22.7123Z" fill="white"/>
<path d="M7.59228 7.40971L7.47874 19.8447C7.47874 19.8447 7.43915 20.4216 8.41485 20.5385C8.41485 20.5385 9.54896 20.6553 9.82028 20.5385C9.82028 20.5385 10.5596 20.5009 12.4747 20.5787C12.4747 20.5787 12.9434 21.0415 12.9811 20.4632C12.9811 20.4632 13.2946 10.3901 13.1382 8.29973C13.1382 8.29973 13.1006 7.40972 12.4338 7.3707C12.4338 7.3707 9.46911 7.60213 9.19514 7.3707L8.02603 7.06006C8.02603 7.06006 7.55465 7.09676 7.59228 7.40971Z" fill="white"/>
<path d="M19.9693 7.87445L19.9316 20.1158C19.9316 20.1158 20.2445 21.203 20.7542 21.0875C20.7542 21.0875 20.8314 20.8538 20.869 20.4637L21.0275 8.80348C21.0275 8.80348 20.636 6.94398 19.9693 7.87445Z" fill="white" stroke="#282828" stroke-width="0.016"/>
<path d="M19.9693 7.87445L19.9316 20.1158C19.9316 20.1158 20.2445 21.203 20.7542 21.0875C20.7542 21.0875 20.8314 20.8538 20.869 20.4637L21.0275 8.80348C21.0275 8.80348 20.636 6.94398 19.9693 7.87445Z" stroke="#282828" stroke-width="0.016"/>
<path d="M13.766 7.9791C13.766 7.9791 13.6485 13.8272 13.6848 14.0233L13.6116 18.943L13.4531 20.6428C13.4531 20.6428 13.6849 20.9959 13.8816 20.7622C13.8816 20.7622 15.1319 20.454 15.9122 20.5688C15.9122 20.5688 18.4122 20.8025 18.9178 20.4137C18.9178 20.4137 19.3086 20.6065 19.4262 19.9866C19.4262 19.9866 19.5806 9.14306 19.5034 8.94826C19.5034 8.94826 19.6605 7.40079 19.5806 7.24765C19.5806 7.24765 19.5417 6.89542 18.8815 7.20349C18.8815 7.20349 18.9575 7.51638 15.2501 7.40079C15.2501 7.40079 13.8433 7.36066 13.766 7.9791Z" fill="white"/>
<path d="M12.5597 11.5617L12.2065 12.3003C12.2065 12.3003 11.351 16.0556 10.8829 16.8286C10.8829 16.8286 10.8044 17.6055 10.1409 16.9844C10.1409 16.9844 8.61662 12.2211 8.53938 12.0653L8.03109 11.7175C8.03109 11.7175 7.72346 11.291 8.26676 11.2534L9.71116 11.291C9.71116 11.291 10.1785 11.6772 9.55535 12.1082C9.55535 12.1082 9.63259 12.7268 10.4525 15.0866C10.4525 15.0866 10.6855 15.9777 10.9595 15.319L11.7411 12.5683L11.5067 11.7551C11.5067 11.7551 11.2711 11.3676 11.6243 11.33C11.6243 11.33 12.4442 11.2534 12.5597 11.5617Z" fill="#282828"/>
<path d="M14.8255 12.1829L14.7839 16.2887L14.6697 16.5977C14.6697 16.5977 14.2782 17.0993 14.5509 17.1396C14.5509 17.1396 14.2023 17.3733 17.0482 17.4109C17.0482 17.4109 18.1441 17.6037 17.8688 16.2095C17.8688 16.2095 17.7526 15.7065 17.3598 16.4432C17.3598 16.4432 17.243 17.0604 15.8408 16.8676C15.8408 16.8676 15.5272 16.5977 15.5272 16.2887V14.5824C15.5272 14.5824 15.4857 14.1553 16.1511 14.1989C16.1511 14.1989 16.8924 14.6616 17.01 14.4656C17.01 14.4656 17.2826 13.8484 17.01 13.4602C17.01 13.4602 16.6574 13.4233 16.6198 13.5784C16.6198 13.5784 16.3854 14.0404 15.7213 13.7691C15.7213 13.7691 15.4097 13.1506 15.6045 12.6463C15.6045 12.6463 15.5273 11.678 16.1914 11.7565C16.1914 11.7565 16.9717 11.9096 17.0482 12.1453C17.0482 12.1453 17.243 12.6113 17.441 12.0687L17.243 11.4073C17.243 11.4073 17.1294 11.1354 16.9327 11.2132C16.9327 11.2132 15.6045 11.4073 15.4467 11.2502L14.3925 11.3684C14.3925 11.3684 14.238 11.7565 14.708 11.9479C14.708 11.9479 14.8255 12.0271 14.8255 12.1829Z" fill="#282828"/>
</svg>
