<svg width="212" height="43" viewBox="0 0 212 43" fill="none" xmlns="http://www.w3.org/2000/svg">
<path d="M7.45151 28.5842C7.45151 31.0134 7.98854 32.8775 8.69048 34.0056C9.61079 35.4836 10.9834 36.1094 12.3828 36.1094C14.1878 36.1094 15.839 35.6645 19.021 31.2966C21.5705 27.7948 24.5741 22.8803 26.5955 19.799L30.0177 14.5789C32.3956 10.9537 35.1477 6.92377 38.3032 4.19228C40.8791 1.96246 43.6577 0.724121 46.454 0.724121C51.149 0.724121 55.6215 3.42459 59.0444 8.49019C62.79 14.037 64.6087 21.0248 64.6087 28.235C64.6087 32.5217 63.7571 35.6711 62.3088 38.1596C60.9093 40.5664 58.1822 42.9704 53.5935 42.9704V36.1094C57.5221 36.1094 58.503 32.5263 58.503 28.4252C58.503 22.5813 57.1299 16.0965 54.1065 11.4626C51.9603 8.17598 49.1798 6.1673 46.12 6.1673C42.8107 6.1673 40.1483 8.64465 37.1552 13.062C35.5643 15.4087 33.9311 18.2682 32.0972 21.4954L30.0778 25.0455C26.0225 32.1831 24.9953 33.8089 22.9673 36.4922C19.4131 41.1901 16.3783 42.9704 12.3828 42.9704C7.64316 42.9704 4.64602 40.9334 2.78982 37.8632C1.27452 35.3615 0.530273 32.0795 0.530273 28.3393L7.45151 28.5842Z" fill="#282828"/>
<path d="M5.9873 8.97402C9.1605 4.119 13.7397 0.724121 18.9919 0.724121C22.0338 0.724121 25.0572 1.61789 28.2147 4.17709C31.6693 6.97459 35.3502 11.5821 39.9429 19.1752L41.5893 21.9001C45.5647 28.474 47.827 31.8557 49.1506 33.4505C50.8525 35.4988 52.0447 36.1094 53.5934 36.1094C57.5219 36.1094 58.5029 32.5263 58.5029 28.4252L64.6086 28.235C64.6086 32.5217 63.757 35.6711 62.3086 38.1596C60.9091 40.5664 58.1821 42.9704 53.5934 42.9704C50.7416 42.9704 48.2145 42.3552 45.4201 39.7393C43.272 37.7306 40.7608 34.1627 38.8285 30.956L33.082 21.4268C30.1984 16.645 27.5532 13.0792 26.0224 11.4646C24.3753 9.72852 22.2589 7.63205 18.8805 7.63205C16.1463 7.63205 13.8244 9.53644 11.8813 12.4495L5.9873 8.97402Z" fill="#282828"/>
<path d="M18.8807 7.63205C16.1465 7.63205 13.8246 9.53644 11.8814 12.4495C9.1339 16.5652 7.45151 22.6968 7.45151 28.5842C7.45151 31.0134 7.98854 32.8775 8.69048 34.0056L2.78982 37.8632C1.27452 35.3615 0.530273 32.0795 0.530273 28.3393C0.530273 21.5377 2.41097 14.4489 5.98751 8.97402C9.16064 4.119 13.7399 0.724121 18.9921 0.724121L18.8807 7.63205Z" fill="#282828"/>
<path d="M78.0635 2.05957H86.0704L99.6833 26.505L113.298 2.05957H121.131V42.2272H114.599V11.4422L102.66 32.7601H96.5324L84.595 11.4422V42.2272H78.0635V2.05957ZM141.596 17.0365C136.912 17.0365 134.091 20.5357 133.415 24.8686H149.312C148.985 20.405 146.391 17.0365 141.596 17.0365ZM126.94 27.3367C126.94 18.2194 132.876 11.5841 141.71 11.5841C150.398 11.5841 155.585 18.1356 155.585 27.8232V29.6042H133.415C134.202 34.3173 137.353 37.4937 142.434 37.4937C146.487 37.4937 149.021 36.2659 151.423 34.0209L154.893 38.2389C151.624 41.2226 147.465 42.9434 142.202 42.9434C132.64 42.9434 126.94 36.023 126.94 27.3367ZM163.505 17.6115H157.493V12.303H163.505V3.52433H169.807V12.303H178.94V17.6115H169.807V31.0663C169.807 35.6599 171.286 37.2923 174.923 37.2923C176.583 37.2923 177.534 37.1511 178.94 36.9187V42.1698C177.189 42.6602 175.518 42.886 173.709 42.886C166.905 42.886 163.505 39.1967 163.505 31.8115V17.6115ZM205.476 22.7741C204.21 19.6023 201.387 17.2663 197.238 17.2663C191.845 17.2663 188.393 21.0638 188.393 27.2509C188.393 33.2822 191.571 37.2639 196.979 37.2639C201.231 37.2639 204.266 34.8084 205.476 31.7541V22.7741ZM211.778 42.2272H205.592V38.0376C203.862 40.5037 200.716 42.9434 195.62 42.9434C187.424 42.9434 181.947 36.1332 181.947 27.2509C181.947 18.2835 187.555 11.5841 195.968 11.5841C200.125 11.5841 203.388 13.2344 205.592 16.1474V12.303H211.778V42.2272Z" fill="#282828"/>
</svg>
