<svg width="191" height="42" viewBox="0 0 191 42" fill="none" xmlns="http://www.w3.org/2000/svg">
<path d="M190.907 19.2655V15.8515H186.754V10.5436L186.616 10.5879L182.714 11.8064L182.635 11.8302V15.8515H176.483V13.6111C176.483 12.5682 176.714 11.7694 177.163 11.2374C177.605 10.7113 178.245 10.444 179.064 10.444C179.651 10.444 180.259 10.5846 180.866 10.8631L181.018 10.9331V7.33754L180.952 7.31047C180.377 7.10121 179.605 6.99561 178.641 6.99561C177.433 6.99561 176.331 7.26493 175.374 7.79829C174.41 8.33231 173.657 9.09471 173.129 10.0644C172.601 11.0321 172.33 12.151 172.33 13.388V15.8515H169.439V19.2655H172.33V33.6484H176.483V19.2655H182.635V28.4052C182.635 32.1698 184.378 34.0775 187.804 34.0775C188.372 34.0775 188.966 34.0101 189.567 33.8781C190.187 33.7421 190.603 33.6068 190.854 33.4623L190.907 33.4292V29.9835L190.735 30.0977C190.511 30.2509 190.233 30.3763 189.903 30.4694C189.573 30.5644 189.296 30.612 189.085 30.612C188.279 30.612 187.685 30.3908 187.316 29.9545C186.946 29.5142 186.754 28.7445 186.754 27.6679V19.2655H190.907ZM160.17 30.612C158.665 30.612 157.477 30.1024 156.639 29.0977C155.8 28.0877 155.371 26.6481 155.371 24.8189C155.371 22.9317 155.8 21.4551 156.639 20.4273C157.477 19.4061 158.652 18.8886 160.137 18.8886C161.576 18.8886 162.725 19.383 163.544 20.36C164.369 21.3415 164.785 22.8069 164.785 24.716C164.785 26.6487 164.395 28.1333 163.616 29.1261C162.844 30.1116 161.689 30.612 160.17 30.612ZM160.355 15.4224C157.484 15.4224 155.199 16.2825 153.569 17.9783C151.945 19.6748 151.12 22.0221 151.12 24.9556C151.12 27.7418 151.925 29.9835 153.516 31.616C155.1 33.2497 157.266 34.0768 159.939 34.0768C162.725 34.0768 164.956 33.2048 166.587 31.4859C168.211 29.7683 169.036 27.4428 169.036 24.578C169.036 21.7481 168.264 19.49 166.739 17.8681C165.214 16.2449 163.062 15.4224 160.355 15.4224ZM144.426 15.4224C142.472 15.4224 140.855 15.9333 139.62 16.94C138.379 17.9526 137.745 19.2807 137.745 20.888C137.745 21.7237 137.884 22.4657 138.154 23.0954C138.419 23.7271 138.841 24.2829 139.396 24.7496C139.943 25.2123 140.788 25.6975 141.917 26.1906C142.861 26.588 143.568 26.924 144.01 27.1887C144.452 27.4481 144.763 27.7088 144.934 27.963C145.106 28.2118 145.192 28.5524 145.192 28.9723C145.192 30.1677 144.32 30.7492 142.511 30.7492C141.845 30.7492 141.079 30.6067 140.241 30.3255C139.415 30.0482 138.63 29.6429 137.917 29.1228L137.745 28.996V33.0761L137.811 33.1065C138.399 33.383 139.138 33.6167 140.009 33.8002C140.881 33.9844 141.673 34.0775 142.36 34.0775C144.485 34.0775 146.188 33.5646 147.436 32.552C148.69 31.5321 149.331 30.1723 149.331 28.5095C149.331 27.3101 148.987 26.281 148.314 25.452C147.641 24.6288 146.479 23.873 144.855 23.2056C143.561 22.6756 142.736 22.236 142.393 21.8986C142.063 21.5726 141.898 21.1118 141.898 20.5276C141.898 20.0101 142.102 19.5956 142.531 19.2602C142.954 18.9223 143.548 18.7506 144.294 18.7506C144.987 18.7506 145.693 18.8622 146.4 19.0807C147.099 19.2998 147.72 19.5923 148.235 19.9507L148.4 20.0689V16.198L148.341 16.1696C147.865 15.9617 147.238 15.7835 146.472 15.6389C145.713 15.495 145.027 15.4224 144.426 15.4224ZM126.925 30.612C125.42 30.612 124.232 30.1024 123.4 29.0977C122.555 28.0877 122.126 26.6487 122.126 24.8189C122.126 22.9317 122.555 21.4551 123.4 20.4273C124.232 19.4061 125.414 18.8886 126.892 18.8886C128.332 18.8886 129.48 19.383 130.299 20.36C131.124 21.3415 131.546 22.8069 131.546 24.716C131.546 26.6487 131.15 28.1333 130.371 29.1261C129.606 30.1116 128.444 30.612 126.925 30.612ZM127.11 15.4224C124.239 15.4224 121.954 16.2825 120.33 17.9783C118.7 19.6748 117.875 22.0221 117.875 24.9556C117.875 27.7432 118.68 29.9835 120.271 31.616C121.855 33.2497 124.021 34.0768 126.694 34.0768C129.48 34.0768 131.718 33.2048 133.342 31.4859C134.973 29.7683 135.791 27.4428 135.791 24.578C135.791 21.7481 135.019 19.49 133.494 17.8681C131.969 16.2449 129.817 15.4224 127.11 15.4224ZM111.577 18.9335V15.8515H107.477V33.6477H111.577V24.5443C111.577 22.9964 111.92 21.7244 112.6 20.7639C113.267 19.8147 114.158 19.3342 115.247 19.3342C115.617 19.3342 116.033 19.3962 116.482 19.519C116.924 19.6411 117.248 19.7738 117.439 19.9137L117.611 20.0411V15.8211L117.545 15.7921C117.162 15.6264 116.62 15.5426 115.94 15.5426C114.911 15.5426 113.987 15.8805 113.194 16.5459C112.501 17.1314 112.006 17.9334 111.623 18.9335H111.577ZM100.137 15.4224C98.2552 15.4224 96.5784 15.8343 95.1459 16.6462C93.72 17.4601 92.6109 18.6219 91.8583 20.0986C91.1124 21.5726 90.7295 23.2934 90.7295 25.2137C90.7295 26.8949 91.0992 28.4382 91.832 29.7981C92.5582 31.1605 93.588 32.2259 94.8951 32.9652C96.2022 33.7032 97.7073 34.0775 99.3774 34.0775C101.325 34.0775 102.988 33.6801 104.322 32.8952L104.381 32.8635V29.0284L104.21 29.1571C103.602 29.6066 102.929 29.965 102.203 30.2231C101.477 30.4819 100.817 30.612 100.236 30.612C98.6249 30.612 97.3376 30.0984 96.4002 29.0851C95.4562 28.0699 94.9808 26.6454 94.9808 24.8526C94.9808 23.0485 95.4826 21.5871 96.4596 20.5085C97.4367 19.4338 98.7305 18.8886 100.302 18.8886C101.648 18.8886 102.962 19.354 104.21 20.2741L104.381 20.4022V16.3611L104.322 16.3287C103.853 16.0614 103.219 15.8409 102.427 15.6739C101.635 15.5069 100.869 15.4224 100.137 15.4224ZM87.9107 15.8515H83.8112V33.6477H87.9107V15.8515ZM85.8973 8.27026C85.2239 8.27026 84.6364 8.50458 84.1545 8.96929C83.666 9.43532 83.4217 10.0221 83.4217 10.7152C83.4217 11.3965 83.666 11.9727 84.1479 12.4262C84.6232 12.8791 85.2107 13.1081 85.8973 13.1081C86.5838 13.1081 87.1779 12.8791 87.6598 12.4276C88.1483 11.9728 88.3926 11.3971 88.3926 10.7152C88.3926 10.0466 88.155 9.46568 87.6797 8.98843C87.2109 8.51184 86.6102 8.27026 85.8973 8.27026ZM75.6715 14.5386V33.6477H79.8569V8.81482H74.0608L66.7002 27.26L59.5574 8.81482H53.5303V33.6477H57.4647V14.5366H57.5968L65.1422 33.6477H68.1129L75.5329 14.5386H75.6715Z" fill="#282828"/>
<path d="M20.0746 20.2105H0.785156V0.51709H20.0746V20.2105Z" fill="black"/>
<path d="M41.3639 20.2105H22.0811V0.51709H41.3639V20.2105Z" fill="#282828"/>
<path d="M20.0746 41.9619H0.785156V22.2686H20.0746V41.9619Z" fill="#636465"/>
<path d="M41.3639 41.9619H22.0811V22.2686H41.3639V41.9619Z" fill="#807F7E"/>
</svg>
