<svg width="260" height="40" viewBox="0 0 260 40" fill="none" xmlns="http://www.w3.org/2000/svg">
<path d="M246.457 17.7452V23.1362H250.249V28.4856C250.261 28.9636 250.234 29.4791 250.153 29.8917C250.001 30.8897 249.053 32.5882 246.361 32.5882C243.686 32.5882 242.755 30.8897 242.593 29.8917C242.525 29.4791 242.496 28.9636 242.496 28.4856V11.5904C242.496 10.9924 242.536 10.3382 242.663 9.84315C242.847 8.94277 243.645 7.16711 246.342 7.16711C249.172 7.16711 249.878 9.03915 250.04 9.84315C250.146 10.3758 250.153 11.269 250.153 11.269V13.3212H259.469V12.1079C259.469 12.1079 259.511 10.8425 259.399 9.66162C258.698 2.72663 252.98 0.532855 246.424 0.532855C239.856 0.532855 234.254 2.74709 233.438 9.66162C233.364 10.294 233.251 11.4313 233.251 12.1079V27.65C233.251 28.3272 233.273 28.8513 233.399 30.0884C234.007 36.8319 239.856 39.2228 246.398 39.2228C252.98 39.2228 258.789 36.8319 259.407 30.0884C259.517 28.8513 259.529 28.3272 259.543 27.65V17.7452H246.457ZM182.216 1.52722H172.86V28.8751C172.875 29.3517 172.86 29.8877 172.778 30.2798C172.583 31.198 171.804 32.9651 169.223 32.9651C166.675 32.9651 165.876 31.198 165.695 30.2798C165.602 29.8877 165.59 29.3517 165.602 28.8751V1.52722H156.248V28.0269C156.236 28.7094 156.29 30.1055 156.331 30.4706C156.976 37.3759 162.422 39.6182 169.223 39.6182C176.037 39.6182 181.479 37.3759 182.137 30.4706C182.188 30.1055 182.256 28.7094 182.216 28.0269V1.52722ZM96.2499 1.52722L91.5827 30.4244L86.9187 1.52722H71.8264L71.0257 38.4947H80.2717L80.5226 4.27258L86.8837 38.4947H96.2644L102.632 4.27258L102.883 38.4947H112.153L111.325 1.52722H96.2499ZM40.3717 1.52722L33.5189 38.4947H43.5121L48.6764 4.27258L53.716 38.4947H63.64L56.816 1.52722H40.3717ZM214.915 31.2904L206.203 1.52722H192.474V38.1092H201.556L201.028 7.39418L210.385 38.1092H223.551V1.52722H214.41L214.915 31.2904ZM130.911 11.1482C130.747 10.4181 130.794 9.64247 130.879 9.23717C131.144 8.05362 131.939 6.76313 134.232 6.76313C136.369 6.76313 137.621 8.09389 137.621 10.0913V12.3522H146.742V9.77516C146.742 1.81041 139.596 0.558927 134.422 0.558927C127.905 0.558927 122.583 2.7055 121.611 8.69854C121.355 10.3296 121.291 11.7779 121.7 13.6249C123.284 21.0978 136.304 23.2663 138.193 27.9919C138.527 28.887 138.431 30.029 138.261 30.7016C137.978 31.9314 137.15 33.1684 134.696 33.1684C132.394 33.1684 131.008 31.8462 131.008 29.8527L131.005 26.3047H121.188V29.1253C121.188 37.2966 127.594 39.7621 134.492 39.7621C141.1 39.7621 146.556 37.5059 147.432 31.3901C147.85 28.2302 147.535 26.172 147.367 25.3971C145.837 17.732 131.961 15.4263 130.911 11.1482ZM10.5988 11.0577C10.4197 10.3125 10.4615 9.52564 10.5612 9.11572C10.8139 7.9381 11.6143 6.6245 13.9472 6.6245C16.111 6.6245 17.385 7.96847 17.385 9.98177V12.2697H26.6125V9.67284C26.6125 1.63152 19.3569 0.349609 14.1263 0.349609C7.55523 0.349609 2.186 2.52925 1.20363 8.56585C0.934756 10.2234 0.888611 11.6809 1.27724 13.5489C2.87902 21.1064 16.0269 23.292 17.9399 28.0744C18.298 28.9636 18.1897 30.1055 18.0121 30.8039C17.7085 32.0469 16.8739 33.3011 14.399 33.3011C12.0879 33.3011 10.7057 31.9558 10.7057 29.9352L10.6928 26.378H0.765625V29.2052C0.765625 37.4703 7.26167 39.9555 14.2142 39.9555C20.8983 39.9555 26.3873 37.6795 27.2827 31.4931C27.7279 28.3041 27.3939 26.2288 27.2438 25.4413C25.6824 17.6825 11.6519 15.3847 10.5988 11.0577Z" fill="#282828"/>
</svg>
