<svg width="235" height="61" viewBox="0 0 235 61" fill="none" xmlns="http://www.w3.org/2000/svg">
<path d="M50.3055 44.6824C49.8804 48.2529 47.1705 51.0596 43.6565 51.492C43.6565 51.492 38.075 52.3699 29.8628 52.3699C21.6506 52.3699 16.0723 51.492 16.0723 51.492C12.5584 51.0596 9.84844 48.2529 9.42001 44.6824C9.42001 44.6824 8.57307 38.3204 8.57307 30.7531C8.57307 23.185 9.42001 16.8237 9.42001 16.8204C9.84844 13.2532 12.5584 10.4464 16.0723 10.0167C16.0723 10.0167 21.6506 9.13613 29.8628 9.13613C38.075 9.13613 43.6565 10.0167 43.6565 10.0167C47.1705 10.4464 49.8804 13.2532 50.3055 16.8204C50.3055 16.8237 51.1558 23.185 51.1558 30.7531C51.1558 38.3204 50.3055 44.6824 50.3055 44.6824ZM58.1105 11.5039C57.5203 6.57561 53.7766 2.69226 48.9199 2.09884C48.9199 2.09884 41.2094 0.88623 29.8628 0.88623C18.5162 0.88623 10.8057 2.09884 10.8057 2.09884C5.94896 2.69226 2.20529 6.57561 1.61775 11.5039C1.61775 11.5039 0.443359 20.2997 0.443359 30.7531C0.443359 41.2064 1.61775 49.9989 1.61775 50.0022C2.20529 54.9305 5.94896 58.8138 10.8057 59.4073C10.8057 59.4073 18.5162 60.6225 29.8628 60.6225C41.2094 60.6225 48.9199 59.4073 48.9199 59.4073C53.7766 58.8138 57.5203 54.9305 58.1105 50.0022C58.1105 49.9989 59.2849 41.2064 59.2849 30.7531C59.2849 20.2997 58.1105 11.5039 58.1105 11.5039Z" fill="#282828"/>
<path d="M32.9944 25.1613C34.279 24.9778 35.5359 24.8959 37.0344 24.9243C38.4841 24.956 40.0137 25.0979 41.3683 25.3507C41.3683 25.3507 41.8119 25.4577 41.8119 24.9778V21.8747C41.8119 21.5902 41.4568 21.4991 41.4568 21.4991C39.9708 21.1043 38.4993 20.8832 37.0437 20.8515C35.6732 20.8264 34.3061 20.965 32.9422 21.2654C32.9422 21.2654 32.5996 21.3723 32.5996 21.6786V24.7474C32.5996 25.3157 32.9944 25.1613 32.9944 25.1613Z" fill="#282828"/>
<path d="M22.3113 27.0621C22.3113 27.0621 26.8994 27.0555 26.8994 23.1471C26.8994 19.2386 22.3113 19.2354 22.3113 19.2354C22.3113 19.2354 17.7207 19.2386 17.7207 23.1471C17.7207 27.0555 22.3113 27.0621 22.3113 27.0621Z" fill="#282828"/>
<path d="M42.1667 34.945C40.5731 35.9616 35.921 38.5538 29.884 38.5538C23.8496 38.5538 19.1949 35.9616 17.6013 34.945C17.6013 34.945 17.0078 34.5153 17.0078 35.314V36.9022C17.0078 37.3821 17.5306 37.8844 17.5306 37.8844C19.1031 39.1314 24.0272 42.6233 29.884 42.6259C35.7408 42.6233 40.6622 39.1314 42.2373 37.8844C42.2373 37.8844 42.7628 37.3821 42.7628 36.9022V35.314C42.7628 34.5153 42.1667 34.945 42.1667 34.945Z" fill="#282828"/>
<path d="M66.1797 25.5261V25.0634C66.1797 23.3405 67.1996 22.4791 69.2381 22.4791H70.4772V19.3832C70.4772 17.1244 71.581 15.987 73.7885 15.9712H74.3952C76.5691 15.9712 77.6557 17.1085 77.6557 19.3832V22.4791H82.0542C84.0254 22.4791 85.0117 23.3082 85.0117 24.9657V25.3558C85.0117 27.078 84.0089 27.948 82.0034 27.9639H77.5038V38.3485C77.5038 40.7374 78.4393 41.9315 80.3101 41.9315C81.5908 41.9315 82.6774 41.387 83.5706 40.2985C83.6043 40.2331 83.7647 40.2905 84.0505 40.4688C84.3542 40.6477 84.6407 40.9731 84.91 41.4444C85.18 41.8992 85.3147 42.4273 85.3147 43.0286C85.3147 44.296 84.6994 45.3608 83.4696 46.2222C82.2562 47.0671 80.6468 47.4896 78.6413 47.4896C73.1819 47.4896 70.4601 44.7105 70.4772 39.1525V27.9639H69.2381C67.1996 27.9639 66.1797 27.1513 66.1797 25.5261Z" fill="#282828"/>
<path d="M87.1602 34.8384C87.1602 31.1174 88.3986 28.0374 90.8755 25.5996C93.3695 23.1461 96.5376 21.9189 100.38 21.9189C104.104 21.9189 107.129 23.0569 109.455 25.3316C111.78 27.5905 112.943 30.5161 112.943 34.107V34.5948C112.909 35.2608 112.766 35.7566 112.513 36.082C112.277 36.3903 111.839 36.5447 111.199 36.5447H93.7319C93.9676 38.3488 94.7512 39.7706 96.0827 40.811C97.4142 41.8348 99.0824 42.3463 101.087 42.3463C104.407 42.3463 106.792 41.1436 108.241 38.7389C108.275 38.6736 108.569 38.7145 109.126 38.8604C109.699 38.9904 110.28 39.3238 110.87 39.8598C111.46 40.3799 111.755 41.0545 111.755 41.8836C111.755 43.3134 110.76 44.6052 108.772 45.7591C106.8 46.9129 104.154 47.4898 100.835 47.4898C96.6894 47.4898 93.3695 46.3439 90.8755 44.0527C88.3986 41.745 87.1602 38.6736 87.1602 34.8384ZM93.7319 32.4495H106.168C106.101 30.7596 105.537 29.4025 104.475 28.3787C103.43 27.339 102.023 26.8188 100.254 26.8188C98.5682 26.8188 97.1277 27.3469 95.9309 28.4031C94.7347 29.4434 94.0013 30.792 93.7319 32.4495Z" fill="#282828"/>
<path d="M117.24 43.6869V12.9236C117.24 12.8266 117.358 12.721 117.594 12.6068C117.83 12.4932 118.176 12.3876 118.631 12.2899C119.085 12.1929 119.532 12.144 119.97 12.144C123.003 12.144 124.528 14.0207 124.545 17.7747V43.6869C124.545 45.9134 123.475 47.0263 121.335 47.0263H120.552C118.344 47.0263 117.24 45.9134 117.24 43.6869Z" fill="#282828"/>
<path d="M128.917 34.8384C128.917 31.1174 130.156 28.0374 132.633 25.5996C135.127 23.1461 138.295 21.9189 142.137 21.9189C145.862 21.9189 148.886 23.0569 151.211 25.3316C153.537 27.5905 154.7 30.5161 154.7 34.107V34.5948C154.666 35.2608 154.523 35.7566 154.271 36.082C154.034 36.3903 153.596 36.5447 152.956 36.5447H135.489C135.725 38.3488 136.509 39.7706 137.84 40.811C139.172 41.8348 140.84 42.3463 142.845 42.3463C146.165 42.3463 148.549 41.1436 149.999 38.7389C150.032 38.6736 150.327 38.7145 150.883 38.8604C151.456 38.9904 152.037 39.3238 152.627 39.8598C153.217 40.3799 153.512 41.0545 153.512 41.8836C153.512 43.3134 152.518 44.6052 150.53 45.7591C148.558 46.9129 145.912 47.4898 142.592 47.4898C138.447 47.4898 135.127 46.3439 132.633 44.0527C130.156 41.745 128.917 38.6736 128.917 34.8384ZM135.489 32.4495H147.926C147.859 30.7596 147.294 29.4025 146.232 28.3787C145.188 27.339 143.78 26.8188 142.011 26.8188C140.326 26.8188 138.885 27.3469 137.688 28.4031C136.492 29.4434 135.759 30.792 135.489 32.4495Z" fill="#282828"/>
<path d="M158.795 43.687V23.016C158.795 22.9513 158.913 22.8536 159.149 22.7236C159.385 22.5936 159.722 22.48 160.16 22.3823C160.615 22.2688 161.07 22.2114 161.525 22.2114C164.002 22.2114 165.468 23.5441 165.923 26.2096C167.929 23.3494 170.709 21.9189 174.265 21.9189C177.399 21.9189 179.741 22.8536 181.292 24.7224C182.859 26.5753 183.643 29.0044 183.643 32.0112V43.687C183.643 45.9135 182.573 47.0264 180.433 47.0264H179.649C177.441 47.0264 176.338 45.9135 176.338 43.687V33.0588C176.338 31.4342 175.933 30.1583 175.124 29.2322C174.315 28.2895 173.161 27.8182 171.661 27.8182C169.1 27.8182 167.238 28.8823 166.075 31.0118V43.687C166.075 45.9135 165.005 47.0264 162.865 47.0264H162.106C159.899 47.0264 158.795 45.9135 158.795 43.687Z" fill="#282828"/>
<path d="M187.46 34.8384C187.46 31.1174 188.698 28.0374 191.176 25.5996C193.67 23.1461 196.838 21.9189 200.68 21.9189C204.404 21.9189 207.429 23.0569 209.754 25.3316C212.08 27.5905 213.243 30.5161 213.243 34.107V34.5948C213.209 35.2608 213.066 35.7566 212.813 36.082C212.577 36.3903 212.139 36.5447 211.499 36.5447H194.032C194.268 38.3488 195.052 39.7706 196.383 40.811C197.714 41.8348 199.382 42.3463 201.388 42.3463C204.708 42.3463 207.092 41.1436 208.541 38.7389C208.575 38.6736 208.87 38.7145 209.426 38.8604C209.999 38.9904 210.58 39.3238 211.17 39.8598C211.76 40.3799 212.054 41.0545 212.054 41.8836C212.054 43.3134 211.06 44.6052 209.072 45.7591C207.101 46.9129 204.455 47.4898 201.135 47.4898C196.99 47.4898 193.67 46.3439 191.176 44.0527C188.698 41.745 187.46 38.6736 187.46 34.8384ZM194.032 32.4495H206.468C206.401 30.7596 205.836 29.4025 204.775 28.3787C203.73 27.339 202.323 26.8188 200.553 26.8188C198.869 26.8188 197.428 27.3469 196.231 28.4031C195.035 29.4434 194.302 30.792 194.032 32.4495Z" fill="#282828"/>
<path d="M215.214 25.5261V25.0634C215.214 23.3405 216.233 22.4791 218.272 22.4791H219.511V19.3832C219.511 17.1244 220.615 15.987 222.822 15.9712H223.429C225.603 15.9712 226.69 17.1085 226.69 19.3832V22.4791H231.088C233.06 22.4791 234.045 23.3082 234.045 24.9657V25.3558C234.045 27.078 233.042 27.948 231.038 27.9639H226.538V38.3485C226.538 40.7374 227.473 41.9315 229.344 41.9315C230.624 41.9315 231.712 41.387 232.605 40.2985C232.638 40.2331 232.798 40.2905 233.085 40.4688C233.388 40.6477 233.675 40.9731 233.944 41.4444C234.214 41.8992 234.349 42.4273 234.349 43.0286C234.349 44.296 233.734 45.3608 232.504 46.2222C231.29 47.0671 229.681 47.4896 227.675 47.4896C222.215 47.4896 219.494 44.7105 219.511 39.1525V27.9639H218.272C216.233 27.9639 215.214 27.1513 215.214 25.5261Z" fill="#282828"/>
</svg>
